<svg version="1.1" viewBox="0.0 0.0 590.3438320209974 434.20734908136484" fill="none" stroke="none" stroke-linecap="square" stroke-miterlimit="10" xmlns:xlink="http://www.w3.org/1999/xlink" xmlns="http://www.w3.org/2000/svg"><clipPath id="p.0"><path d="m0 0l590.3438 0l0 434.20734l-590.3438 0l0 -434.20734z" clip-rule="nonzero"/></clipPath><g clip-path="url(#p.0)"><path fill="#000000" fill-opacity="0.0" d="m0 0l590.3438 0l0 434.20734l-590.3438 0z" fill-rule="evenodd"/><g filter="url(#shadowFilter-p.1)"><use xlink:href="#p.1" transform="matrix(1.0 0.0 0.0 1.0 0.0 2.0)"/></g><defs><filter id="shadowFilter-p.1" filterUnits="userSpaceOnUse"><feGaussianBlur in="SourceAlpha" stdDeviation="2.0" result="blur"/><feComponentTransfer in="blur" color-interpolation-filters="sRGB"><feFuncR type="linear" slope="0" intercept="0.0"/><feFuncG type="linear" slope="0" intercept="0.0"/><feFuncB type="linear" slope="0" intercept="0.0"/><feFuncA type="linear" slope="0.5" intercept="0"/></feComponentTransfer></filter></defs><g id="p.1"><path fill="#b6d7a8" d="m32.66273 104.22572l110.677155 0l0 322.17322l-110.677155 0z" fill-rule="evenodd"/></g><g filter="url(#shadowFilter-p.2)"><use xlink:href="#p.2" transform="matrix(1.0 0.0 0.0 1.0 0.0 2.0)"/></g><defs><filter id="shadowFilter-p.2" filterUnits="userSpaceOnUse"><feGaussianBlur in="SourceAlpha" stdDeviation="2.0" result="blur"/><feComponentTransfer in="blur" color-interpolation-filters="sRGB"><feFuncR type="linear" slope="0" intercept="0.0"/><feFuncG type="linear" slope="0" intercept="0.0"/><feFuncB type="linear" slope="0" intercept="0.0"/><feFuncA type="linear" slope="0.5" intercept="0"/></feComponentTransfer></filter></defs><g id="p.2"><path fill="#fff2cc" d="m41.498688 114.62205l93.00787 0l0 60.944878l-93.00787 0z" fill-rule="evenodd"/><path stroke="#434343" stroke-width="1.0" stroke-linejoin="round" stroke-linecap="butt" d="m41.498688 114.62205l93.00787 0l0 60.944878l-93.00787 0z" fill-rule="evenodd"/><path fill="#000000" d="m82.28635 154.97449l0 -3.859375l3.8125 0l0 -9.1875l-3.359375 0l0 -2.96875q1.515625 -0.3125 2.578125 -0.71875q1.0625 -0.40625 2.0625 -1.015625l3.53125 0l0 13.890625l3.1875 0l0 3.859375l-11.8125 0z" fill-rule="nonzero"/></g><g filter="url(#shadowFilter-p.3)"><use xlink:href="#p.3" transform="matrix(1.0 0.0 0.0 1.0 0.0 2.0)"/></g><defs><filter id="shadowFilter-p.3" filterUnits="userSpaceOnUse"><feGaussianBlur in="SourceAlpha" stdDeviation="2.0" result="blur"/><feComponentTransfer in="blur" color-interpolation-filters="sRGB"><feFuncR type="linear" slope="0" intercept="0.0"/><feFuncG type="linear" slope="0" intercept="0.0"/><feFuncB type="linear" slope="0" intercept="0.0"/><feFuncA type="linear" slope="0.5" intercept="0"/></feComponentTransfer></filter></defs><g id="p.3"><path fill="#ffe599" d="m41.498688 192.97769l93.00787 0l0 60.944885l-93.00787 0z" fill-rule="evenodd"/><path stroke="#434343" stroke-width="1.0" stroke-linejoin="round" stroke-linecap="butt" d="m41.498688 192.97769l93.00787 0l0 60.944885l-93.00787 0z" fill-rule="evenodd"/><path fill="#000000" d="m81.45822 233.33012l0 -2.75q2.09375 -1.921875 3.78125 -3.578125q1.703125 -1.65625 2.671875 -3.046875q0.984375 -1.40625 0.984375 -2.609375q0 -1.203125 -0.609375 -1.78125q-0.59375 -0.578125 -1.578125 -0.578125q-0.859375 0 -1.5625 0.53125q-0.703125 0.515625 -1.34375 1.15625l-2.578125 -2.578125q1.40625 -1.484375 2.796875 -2.171875q1.40625 -0.6875 3.359375 -0.6875q1.796875 0 3.171875 0.71875q1.375 0.71875 2.15625 2.03125q0.78125 1.3125 0.78125 3.078125q0 1.421875 -0.765625 2.90625q-0.765625 1.484375 -1.953125 2.90625q-1.171875 1.40625 -2.375 2.640625q0.671875 -0.078125 1.515625 -0.140625q0.859375 -0.078125 1.453125 -0.078125l2.96875 0l0 4.03125l-12.875 0z" fill-rule="nonzero"/></g><g filter="url(#shadowFilter-p.4)"><use xlink:href="#p.4" transform="matrix(1.0 0.0 0.0 1.0 0.0 2.0)"/></g><defs><filter id="shadowFilter-p.4" filterUnits="userSpaceOnUse"><feGaussianBlur in="SourceAlpha" stdDeviation="2.0" result="blur"/><feComponentTransfer in="blur" color-interpolation-filters="sRGB"><feFuncR type="linear" slope="0" intercept="0.0"/><feFuncG type="linear" slope="0" intercept="0.0"/><feFuncB type="linear" slope="0" intercept="0.0"/><feFuncA type="linear" slope="0.5" intercept="0"/></feComponentTransfer></filter></defs><g id="p.4"><path fill="#ffd966" d="m41.498688 271.33597l93.00787 0l0 60.944885l-93.00787 0z" fill-rule="evenodd"/><path stroke="#434343" stroke-width="1.0" stroke-linejoin="round" stroke-linecap="butt" d="m41.498688 271.33597l93.00787 0l0 60.944885l-93.00787 0z" fill-rule="evenodd"/><path fill="#000000" d="m87.33322 312.03214q-2.15625 0 -3.75 -0.671875q-1.578125 -0.6875 -2.578125 -1.859375l2.1875 -3.015625q0.8125 0.75 1.75 1.21875q0.9375 0.453125 1.890625 0.453125q1.171875 0 1.859375 -0.421875q0.703125 -0.421875 0.703125 -1.25q0 -0.671875 -0.34375 -1.140625q-0.328125 -0.484375 -1.265625 -0.734375q-0.9375 -0.265625 -2.8125 -0.265625l0 -3.359375q2.25 0 3.0625 -0.53125q0.8125 -0.546875 0.8125 -1.484375q0 -1.625 -1.859375 -1.625q-0.859375 0 -1.578125 0.375q-0.71875 0.359375 -1.546875 1.09375l-2.40625 -2.921875q1.3125 -1.09375 2.71875 -1.6875q1.421875 -0.609375 3.046875 -0.609375q2.9375 0 4.6875 1.3125q1.75 1.296875 1.75 3.703125q0 2.578125 -2.859375 3.84375l0 0.109375q1.515625 0.4375 2.46875 1.515625q0.953125 1.0625 0.953125 2.734375q0 1.6875 -0.953125 2.84375q-0.953125 1.15625 -2.53125 1.765625q-1.5625 0.609375 -3.40625 0.609375z" fill-rule="nonzero"/></g><g filter="url(#shadowFilter-p.5)"><use xlink:href="#p.5" transform="matrix(1.0 0.0 0.0 1.0 0.0 2.0)"/></g><defs><filter id="shadowFilter-p.5" filterUnits="userSpaceOnUse"><feGaussianBlur in="SourceAlpha" stdDeviation="2.0" result="blur"/><feComponentTransfer in="blur" color-interpolation-filters="sRGB"><feFuncR type="linear" slope="0" intercept="0.0"/><feFuncG type="linear" slope="0" intercept="0.0"/><feFuncB type="linear" slope="0" intercept="0.0"/><feFuncA type="linear" slope="0.5" intercept="0"/></feComponentTransfer></filter></defs><g id="p.5"><path fill="#f1c232" d="m41.498688 352.54068l93.00787 0l0 60.944885l-93.00787 0z" fill-rule="evenodd"/><path stroke="#434343" stroke-width="1.0" stroke-linejoin="round" stroke-linecap="butt" d="m41.498688 352.54068l93.00787 0l0 60.944885l-93.00787 0z" fill-rule="evenodd"/><path fill="#000000" d="m85.53635 385.28375l3.03125 0l0 -2.015625q0 -0.90625 0.0625 -2.109375q0.078125 -1.203125 0.09375 -2.09375l-0.109375 0q-0.328125 0.78125 -0.703125 1.578125q-0.359375 0.796875 -0.75 1.609375l-1.625 3.03125zm3.03125 7.609375l0 -3.96875l-7.5625 0l0 -3.375l6.046875 -10.40625l5.984375 0l0 10.140625l1.90625 0l0 3.640625l-1.90625 0l0 3.96875l-4.46875 0z" fill-rule="nonzero"/></g><g filter="url(#shadowFilter-p.6)"><use xlink:href="#p.6" transform="matrix(1.0 0.0 0.0 1.0 0.0 2.0)"/></g><defs><filter id="shadowFilter-p.6" filterUnits="userSpaceOnUse"><feGaussianBlur in="SourceAlpha" stdDeviation="2.0" result="blur"/><feComponentTransfer in="blur" color-interpolation-filters="sRGB"><feFuncR type="linear" slope="0" intercept="0.0"/><feFuncG type="linear" slope="0" intercept="0.0"/><feFuncB type="linear" slope="0" intercept="0.0"/><feFuncA type="linear" slope="0.5" intercept="0"/></feComponentTransfer></filter></defs><g id="p.6"><path fill="#ffffff" d="m346.0105 156.8084l229.16534 0l0 217.00789l-229.16534 0z" fill-rule="evenodd"/><path stroke="#000000" stroke-width="1.0" stroke-linejoin="round" stroke-linecap="butt" d="m346.0105 156.8084l229.16534 0l0 217.00789l-229.16534 0z" fill-rule="evenodd"/></g><g filter="url(#shadowFilter-p.7)"><use xlink:href="#p.7" transform="matrix(1.0 0.0 0.0 1.0 0.0 2.0)"/></g><defs><filter id="shadowFilter-p.7" filterUnits="userSpaceOnUse"><feGaussianBlur in="SourceAlpha" stdDeviation="2.0" result="blur"/><feComponentTransfer in="blur" color-interpolation-filters="sRGB"><feFuncR type="linear" slope="0" intercept="0.0"/><feFuncG type="linear" slope="0" intercept="0.0"/><feFuncB type="linear" slope="0" intercept="0.0"/><feFuncA type="linear" slope="0.5" intercept="0"/></feComponentTransfer></filter></defs><g id="p.7"><path fill="#fff2cc" d="m352.97113 165.09186l215.24408 0l0 25.228348l-215.24408 0z" fill-rule="evenodd"/><path fill="#000000" d="m363.28363 184.62604l0 -2.21875l2.5625 0l0 -6.84375l-2.21875 0l0 -1.703125q0.96875 -0.1875 1.640625 -0.4375q0.671875 -0.265625 1.3125 -0.640625l2.015625 0l0 9.625l2.21875 0l0 2.21875l-7.53125 0z" fill-rule="nonzero"/></g><g filter="url(#shadowFilter-p.8)"><use xlink:href="#p.8" transform="matrix(1.0 0.0 0.0 1.0 0.0 2.0)"/></g><defs><filter id="shadowFilter-p.8" filterUnits="userSpaceOnUse"><feGaussianBlur in="SourceAlpha" stdDeviation="2.0" result="blur"/><feComponentTransfer in="blur" color-interpolation-filters="sRGB"><feFuncR type="linear" slope="0" intercept="0.0"/><feFuncG type="linear" slope="0" intercept="0.0"/><feFuncB type="linear" slope="0" intercept="0.0"/><feFuncA type="linear" slope="0.5" intercept="0"/></feComponentTransfer></filter></defs><g id="p.8"><path fill="#fff2cc" d="m352.97113 190.3202l215.24408 0l0 25.228348l-215.24408 0z" fill-rule="evenodd"/><path fill="#000000" d="m363.28363 209.85439l0 -2.21875l2.5625 0l0 -6.84375l-2.21875 0l0 -1.703125q0.96875 -0.1875 1.640625 -0.4375q0.671875 -0.265625 1.3125 -0.640625l2.015625 0l0 9.625l2.21875 0l0 2.21875l-7.53125 0z" fill-rule="nonzero"/></g><g filter="url(#shadowFilter-p.9)"><use xlink:href="#p.9" transform="matrix(1.0 0.0 0.0 1.0 0.0 2.0)"/></g><defs><filter id="shadowFilter-p.9" filterUnits="userSpaceOnUse"><feGaussianBlur in="SourceAlpha" stdDeviation="2.0" result="blur"/><feComponentTransfer in="blur" color-interpolation-filters="sRGB"><feFuncR type="linear" slope="0" intercept="0.0"/><feFuncG type="linear" slope="0" intercept="0.0"/><feFuncB type="linear" slope="0" intercept="0.0"/><feFuncA type="linear" slope="0.5" intercept="0"/></feComponentTransfer></filter></defs><g id="p.9"><path fill="#ffe599" d="m352.97113 215.54855l215.24408 0l0 25.228348l-215.24408 0z" fill-rule="evenodd"/><path fill="#000000" d="m362.65863 235.08273l0 -1.5625q1.515625 -1.4375 2.671875 -2.59375q1.171875 -1.171875 1.828125 -2.15625q0.65625 -0.984375 0.65625 -1.828125q0 -0.875 -0.46875 -1.328125q-0.453125 -0.453125 -1.21875 -0.453125q-0.625 0 -1.140625 0.359375q-0.515625 0.359375 -0.96875 0.84375l-1.484375 -1.46875q0.875 -0.9375 1.78125 -1.40625q0.921875 -0.484375 2.1875 -0.484375q1.171875 0 2.046875 0.46875q0.890625 0.46875 1.375 1.328125q0.5 0.84375 0.5 1.984375q0 0.984375 -0.5625 2.015625q-0.546875 1.03125 -1.40625 2.078125q-0.84375 1.03125 -1.8125 2.03125q0.4375 -0.046875 1.0 -0.09375q0.5625 -0.046875 0.96875 -0.046875l2.390625 0l0 2.3125l-8.34375 0z" fill-rule="nonzero"/></g><g filter="url(#shadowFilter-p.10)"><use xlink:href="#p.10" transform="matrix(1.0 0.0 0.0 1.0 0.0 2.0)"/></g><defs><filter id="shadowFilter-p.10" filterUnits="userSpaceOnUse"><feGaussianBlur in="SourceAlpha" stdDeviation="2.0" result="blur"/><feComponentTransfer in="blur" color-interpolation-filters="sRGB"><feFuncR type="linear" slope="0" intercept="0.0"/><feFuncG type="linear" slope="0" intercept="0.0"/><feFuncB type="linear" slope="0" intercept="0.0"/><feFuncA type="linear" slope="0.5" intercept="0"/></feComponentTransfer></filter></defs><g id="p.10"><path fill="#ffe599" d="m352.97113 240.7769l215.24408 0l0 25.228348l-215.24408 0z" fill-rule="evenodd"/><path fill="#000000" d="m362.65863 260.31107l0 -1.5625q1.515625 -1.4375 2.671875 -2.59375q1.171875 -1.1718597 1.828125 -2.1562347q0.65625 -0.984375 0.65625 -1.828125q0 -0.875 -0.46875 -1.328125q-0.453125 -0.453125 -1.21875 -0.453125q-0.625 0 -1.140625 0.359375q-0.515625 0.359375 -0.96875 0.84375l-1.484375 -1.46875q0.875 -0.9375 1.78125 -1.40625q0.921875 -0.484375 2.1875 -0.484375q1.171875 0 2.046875 0.46875q0.890625 0.46875 1.375 1.328125q0.5 0.84375 0.5 1.984375q0 0.984375 -0.5625 2.015625q-0.546875 1.03125 -1.40625 2.0781097q-0.84375 1.03125 -1.8125 2.03125q0.4375 -0.046875 1.0 -0.09375q0.5625 -0.046875 0.96875 -0.046875l2.390625 0l0 2.3125l-8.34375 0z" fill-rule="nonzero"/></g><g filter="url(#shadowFilter-p.11)"><use xlink:href="#p.11" transform="matrix(1.0 0.0 0.0 1.0 0.0 2.0)"/></g><defs><filter id="shadowFilter-p.11" filterUnits="userSpaceOnUse"><feGaussianBlur in="SourceAlpha" stdDeviation="2.0" result="blur"/><feComponentTransfer in="blur" color-interpolation-filters="sRGB"><feFuncR type="linear" slope="0" intercept="0.0"/><feFuncG type="linear" slope="0" intercept="0.0"/><feFuncB type="linear" slope="0" intercept="0.0"/><feFuncA type="linear" slope="0.5" intercept="0"/></feComponentTransfer></filter></defs><g id="p.11"><path fill="#ffd966" d="m352.97113 266.00525l215.24408 0l0 25.228333l-215.24408 0z" fill-rule="evenodd"/><path fill="#000000" d="m366.50238 285.75818q-1.4375 0 -2.453125 -0.453125q-1.015625 -0.46875 -1.671875 -1.21875l1.265625 -1.734375q0.546875 0.515625 1.203125 0.859375q0.65625 0.328125 1.390625 0.328125q0.890625 0 1.40625 -0.359375q0.515625 -0.359375 0.515625 -1.03125q0 -0.53125 -0.265625 -0.90625q-0.25 -0.390625 -0.9375 -0.59375q-0.6875 -0.203125 -1.984375 -0.203125l0 -1.9375q1.609375 0 2.203125 -0.4375q0.59375 -0.4375 0.59375 -1.15625q0 -0.609375 -0.375 -0.953125q-0.359375 -0.34375 -1.078125 -0.34375q-0.625 0 -1.140625 0.28125q-0.515625 0.28125 -1.078125 0.765625l-1.375 -1.6875q0.8125 -0.703125 1.71875 -1.109375q0.921875 -0.40625 2.015625 -0.40625q1.828125 0 2.953125 0.859375q1.125 0.84375 1.125 2.390625q0 0.921875 -0.515625 1.578125q-0.515625 0.640625 -1.46875 1.0625l0 0.0625q1.03125 0.296875 1.6875 1.015625q0.671875 0.71875 0.671875 1.875q0 1.109375 -0.609375 1.890625q-0.609375 0.765625 -1.609375 1.171875q-0.984375 0.390625 -2.1875 0.390625z" fill-rule="nonzero"/></g><g filter="url(#shadowFilter-p.12)"><use xlink:href="#p.12" transform="matrix(1.0 0.0 0.0 1.0 0.0 2.0)"/></g><defs><filter id="shadowFilter-p.12" filterUnits="userSpaceOnUse"><feGaussianBlur in="SourceAlpha" stdDeviation="2.0" result="blur"/><feComponentTransfer in="blur" color-interpolation-filters="sRGB"><feFuncR type="linear" slope="0" intercept="0.0"/><feFuncG type="linear" slope="0" intercept="0.0"/><feFuncB type="linear" slope="0" intercept="0.0"/><feFuncA type="linear" slope="0.5" intercept="0"/></feComponentTransfer></filter></defs><g id="p.12"><path fill="#ffd966" d="m352.97113 291.23358l215.24408 0l0 25.228363l-215.24408 0z" fill-rule="evenodd"/><path fill="#000000" d="m366.50238 310.9865q-1.4375 0 -2.453125 -0.453125q-1.015625 -0.46875 -1.671875 -1.21875l1.265625 -1.734375q0.546875 0.515625 1.203125 0.859375q0.65625 0.328125 1.390625 0.328125q0.890625 0 1.40625 -0.359375q0.515625 -0.359375 0.515625 -1.03125q0 -0.53125 -0.265625 -0.90625q-0.25 -0.390625 -0.9375 -0.59375q-0.6875 -0.203125 -1.984375 -0.203125l0 -1.9375q1.609375 0 2.203125 -0.4375q0.59375 -0.4375 0.59375 -1.15625q0 -0.609375 -0.375 -0.953125q-0.359375 -0.34375 -1.078125 -0.34375q-0.625 0 -1.140625 0.28125q-0.515625 0.28125 -1.078125 0.765625l-1.375 -1.6875q0.8125 -0.703125 1.71875 -1.109375q0.921875 -0.40625 2.015625 -0.40625q1.828125 0 2.953125 0.859375q1.125 0.84375 1.125 2.390625q0 0.921875 -0.515625 1.578125q-0.515625 0.640625 -1.46875 1.0625l0 0.0625q1.03125 0.296875 1.6875 1.015625q0.671875 0.71875 0.671875 1.875q0 1.109375 -0.609375 1.890625q-0.609375 0.765625 -1.609375 1.171875q-0.984375 0.390625 -2.1875 0.390625z" fill-rule="nonzero"/></g><g filter="url(#shadowFilter-p.13)"><use xlink:href="#p.13" transform="matrix(1.0 0.0 0.0 1.0 0.0 2.0)"/></g><defs><filter id="shadowFilter-p.13" filterUnits="userSpaceOnUse"><feGaussianBlur in="SourceAlpha" stdDeviation="2.0" result="blur"/><feComponentTransfer in="blur" color-interpolation-filters="sRGB"><feFuncR type="linear" slope="0" intercept="0.0"/><feFuncG type="linear" slope="0" intercept="0.0"/><feFuncB type="linear" slope="0" intercept="0.0"/><feFuncA type="linear" slope="0.5" intercept="0"/></feComponentTransfer></filter></defs><g id="p.13"><path fill="#f1c232" d="m352.97113 316.46194l215.24408 0l0 25.228333l-215.24408 0z" fill-rule="evenodd"/><path fill="#000000" d="m364.9555 331.07425l2.5 0l0 -1.921875q0 -0.578125 0.046875 -1.328125q0.046875 -0.765625 0.0625 -1.328125l-0.078125 0q-0.21875 0.484375 -0.46875 1.0q-0.234375 0.5 -0.5 1.0l-1.5625 2.578125zm2.5 4.921875l0 -2.828125l-5.125 0l0 -1.890625l4.328125 -7.125l3.359375 0l0 6.921875l1.359375 0l0 2.09375l-1.359375 0l0 2.828125l-2.5625 0z" fill-rule="nonzero"/></g><g filter="url(#shadowFilter-p.14)"><use xlink:href="#p.14" transform="matrix(1.0 0.0 0.0 1.0 0.0 2.0)"/></g><defs><filter id="shadowFilter-p.14" filterUnits="userSpaceOnUse"><feGaussianBlur in="SourceAlpha" stdDeviation="2.0" result="blur"/><feComponentTransfer in="blur" color-interpolation-filters="sRGB"><feFuncR type="linear" slope="0" intercept="0.0"/><feFuncG type="linear" slope="0" intercept="0.0"/><feFuncB type="linear" slope="0" intercept="0.0"/><feFuncA type="linear" slope="0.5" intercept="0"/></feComponentTransfer></filter></defs><g id="p.14"><path fill="#f1c232" d="m352.97113 341.69028l215.24408 0l0 25.228363l-215.24408 0z" fill-rule="evenodd"/><path fill="#000000" d="m364.9555 356.30258l2.5 0l0 -1.921875q0 -0.578125 0.046875 -1.328125q0.046875 -0.765625 0.0625 -1.328125l-0.078125 0q-0.21875 0.484375 -0.46875 1.0q-0.234375 0.5 -0.5 1.0l-1.5625 2.578125zm2.5 4.921875l0 -2.828125l-5.125 0l0 -1.890625l4.328125 -7.125l3.359375 0l0 6.921875l1.359375 0l0 2.09375l-1.359375 0l0 2.828125l-2.5625 0z" fill-rule="nonzero"/></g><path fill="#000000" fill-opacity="0.0" d="m3.3097112 12.128609l169.38583 0l0 87.27559l-169.38583 0z" fill-rule="evenodd"/><path fill="#000000" d="m32.74587 39.048607l5.171875 -13.0625l2.671875 0l5.140625 13.0625l-3.21875 0l-2.453125 -6.625q-0.15625 -0.390625 -0.3125 -0.828125q-0.140625 -0.453125 -0.296875 -0.921875q-0.140625 -0.484375 -0.28125 -0.9375q-0.140625 -0.46875 -0.234375 -0.859375l0.5625 -0.015625q-0.109375 0.46875 -0.25 0.921875q-0.140625 0.4375 -0.28125 0.875q-0.140625 0.4375 -0.3125 0.875q-0.15625 0.4375 -0.3125 0.90625l-2.46875 6.609375l-3.125 0zm2.453125 -2.5l1.0 -2.390625l6.0 0l0.96875 2.390625l-7.96875 0zm22.15181 2.6875q-1.4375 0 -2.578125 -0.671875q-1.140625 -0.671875 -1.796875 -1.828125q-0.65625 -1.171875 -0.65625 -2.65625q0 -1.46875 0.65625 -2.625q0.65625 -1.171875 1.796875 -1.84375q1.140625 -0.671875 2.578125 -0.671875q1.328125 0 2.4375 0.46875q1.109375 0.46875 1.765625 1.296875l-1.625 1.9375q-0.265625 -0.296875 -0.625 -0.546875q-0.34375 -0.265625 -0.78125 -0.40625q-0.421875 -0.15625 -0.890625 -0.15625q-0.703125 0 -1.25 0.328125q-0.546875 0.328125 -0.84375 0.90625q-0.296875 0.578125 -0.296875 1.3125q0 0.71875 0.296875 1.296875q0.3125 0.578125 0.859375 0.921875q0.546875 0.328125 1.234375 0.328125q0.484375 0 0.890625 -0.125q0.40625 -0.125 0.75 -0.359375q0.359375 -0.25 0.65625 -0.59375l1.59375 1.953125q-0.625 0.796875 -1.765625 1.265625q-1.125 0.46875 -2.40625 0.46875zm10.48016 0q-1.546875 0 -2.75 -0.671875q-1.2031212 -0.671875 -1.9062462 -1.828125q-0.6875 -1.15625 -0.6875 -2.65625q0 -1.484375 0.6875 -2.640625q0.703125 -1.15625 1.9062462 -1.828125q1.203125 -0.671875 2.75 -0.671875q1.546875 0 2.75 0.671875q1.203125 0.671875 1.890625 1.828125q0.703125 1.15625 0.703125 2.640625q0 1.5 -0.703125 2.65625q-0.6875 1.15625 -1.890625 1.828125q-1.203125 0.671875 -2.75 0.671875zm0 -2.578125q0.671875 0 1.1875 -0.328125q0.53125 -0.34375 0.828125 -0.921875q0.296875 -0.578125 0.28125 -1.328125q0.015625 -0.734375 -0.28125 -1.328125q-0.296875 -0.59375 -0.828125 -0.921875q-0.515625 -0.34375 -1.1875 -0.34375q-0.671875 0 -1.203125 0.34375q-0.53125 0.328125 -0.828125 0.921875q-0.296875 0.59375 -0.28125 1.328125q-0.015625 0.75 0.28125 1.328125q0.296875 0.578125 0.828125 0.921875q0.53125 0.328125 1.203125 0.328125zm7.318039 2.390625l0 -13.8125l2.984375 0l0 13.8125l-2.984375 0zm5.671509 0l0 -13.8125l2.984375 0l0 13.8125l-2.984375 0zm10.187973 0.1875q-1.640625 0 -2.859375 -0.65625q-1.203125 -0.671875 -1.875 -1.8125q-0.671875 -1.15625 -0.671875 -2.625q0 -1.140625 0.359375 -2.09375q0.375 -0.953125 1.046875 -1.640625q0.671875 -0.703125 1.59375 -1.078125q0.9375 -0.390625 2.03125 -0.390625q1.046875 0 1.90625 0.375q0.875 0.375 1.5 1.046875q0.640625 0.671875 0.96875 1.59375q0.34375 0.90625 0.3125 1.984375l-0.03125 0.796875l-7.890625 0l-0.421875 -1.671875l5.890625 0l-0.3125 0.34375l0 -0.359375q-0.03125 -0.46875 -0.296875 -0.828125q-0.25 -0.375 -0.65625 -0.578125q-0.40625 -0.203125 -0.9375 -0.203125q-0.71875 0 -1.234375 0.296875q-0.515625 0.28125 -0.78125 0.828125q-0.25 0.546875 -0.25 1.359375q0 0.8125 0.34375 1.421875q0.34375 0.609375 1.0 0.953125q0.671875 0.328125 1.578125 0.328125q0.640625 0 1.125 -0.1875q0.5 -0.1875 1.078125 -0.640625l1.40625 1.984375q-0.578125 0.5 -1.234375 0.828125q-0.65625 0.3125 -1.34375 0.46875q-0.671875 0.15625 -1.34375 0.15625zm10.557571 0q-1.4375 0 -2.578125 -0.671875q-1.140625 -0.671875 -1.796875 -1.828125q-0.65625 -1.171875 -0.65625 -2.65625q0 -1.46875 0.65625 -2.625q0.65625 -1.171875 1.796875 -1.84375q1.140625 -0.671875 2.578125 -0.671875q1.328125 0 2.4375 0.46875q1.109375 0.46875 1.765625 1.296875l-1.625 1.9375q-0.265625 -0.296875 -0.625 -0.546875q-0.34375 -0.265625 -0.78125 -0.40625q-0.421875 -0.15625 -0.890625 -0.15625q-0.703125 0 -1.25 0.328125q-0.546875 0.328125 -0.84375 0.90625q-0.296875 0.578125 -0.296875 1.3125q0 0.71875 0.296875 1.296875q0.3125 0.578125 0.859375 0.921875q0.546875 0.328125 1.234375 0.328125q0.484375 0 0.890625 -0.125q0.40625 -0.125 0.75 -0.359375q0.359375 -0.25 0.65625 -0.59375l1.59375 1.953125q-0.625 0.796875 -1.765625 1.265625q-1.125 0.46875 -2.40625 0.46875zm6.6364136 -0.1875l0 -12.40625l2.984375 0l0 12.40625l-2.984375 0zm-1.75 -7.296875l0 -2.609375l6.65625 0l0 2.609375l-6.65625 0zm8.534561 7.296875l0 -9.90625l2.984375 0l0 9.90625l-2.984375 0zm1.484375 -11.859375q-0.84375 0 -1.328125 -0.40625q-0.46875 -0.40625 -0.46875 -1.140625q0 -0.671875 0.484375 -1.09375q0.5 -0.4375 1.3125 -0.4375q0.84375 0 1.296875 0.40625q0.46875 0.390625 0.46875 1.125q0 0.6875 -0.46875 1.125q-0.46875 0.421875 -1.296875 0.421875zm8.95134 12.046875q-1.546875 0 -2.75 -0.671875q-1.203125 -0.671875 -1.90625 -1.828125q-0.6875 -1.15625 -0.6875 -2.65625q0 -1.484375 0.6875 -2.640625q0.703125 -1.15625 1.90625 -1.828125q1.203125 -0.671875 2.75 -0.671875q1.546875 0 2.75 0.671875q1.203125 0.671875 1.890625 1.828125q0.703125 1.15625 0.703125 2.640625q0 1.5 -0.703125 2.65625q-0.6875 1.15625 -1.890625 1.828125q-1.203125 0.671875 -2.75 0.671875zm0 -2.578125q0.671875 0 1.1875 -0.328125q0.53125 -0.34375 0.828125 -0.921875q0.296875 -0.578125 0.28125 -1.328125q0.015625 -0.734375 -0.28125 -1.328125q-0.296875 -0.59375 -0.828125 -0.921875q-0.515625 -0.34375 -1.1875 -0.34375q-0.671875 0 -1.203125 0.34375q-0.53125 0.328125 -0.828125 0.921875q-0.296875 0.59375 -0.28125 1.328125q-0.015625 0.75 0.28125 1.328125q0.296875 0.578125 0.828125 0.921875q0.53125 0.328125 1.203125 0.328125zm7.302414 2.390625l0 -9.90625l2.828125 0l0.09375 2.015625l-0.59375 0.21875q0.203125 -0.671875 0.734375 -1.21875q0.53125 -0.546875 1.28125 -0.875q0.75 -0.34375 1.5625 -0.34375q1.125 0 1.890625 0.453125q0.765625 0.453125 1.15625 1.359375q0.390625 0.90625 0.390625 2.21875l0 6.078125l-3.0 0l0 -5.84375q0 -0.59375 -0.171875 -0.984375q-0.171875 -0.390625 -0.515625 -0.578125q-0.34375 -0.203125 -0.84375 -0.1875q-0.390625 0 -0.734375 0.125q-0.328125 0.125 -0.578125 0.359375q-0.234375 0.21875 -0.375 0.53125q-0.140625 0.296875 -0.140625 0.640625l0 5.9375l-1.484375 0q-0.515625 0 -0.890625 0q-0.375 0 -0.609375 0z" fill-rule="nonzero"/><path fill="#000000" d="m71.09572 61.448605l-3.265625 -9.90625l3.15625 0l1.828125 6.4375l-0.390625 -0.078125l2.046875 -5.0l1.765625 0l2.15625 5.015625l-0.421875 0.046875l1.828125 -6.421875l3.140625 0l-3.375 9.90625l-2.203125 0l-2.140625 -5.3125l0.21875 0.03125l-2.140625 5.28125l-2.203125 0zm13.574936 0l0 -9.90625l2.984375 0l0 9.90625l-2.984375 0zm1.484375 -11.859375q-0.84375 0 -1.328125 -0.40625q-0.46875 -0.40625 -0.46875 -1.140625q0 -0.671875 0.484375 -1.09375q0.5 -0.4375 1.3125 -0.4375q0.84375 0 1.296875 0.40625q0.46875 0.390625 0.46875 1.125q0 0.6875 -0.46875 1.125q-0.46875 0.421875 -1.296875 0.421875zm5.1075897 11.859375l0 -12.40625l2.984375 0l0 12.40625l-2.984375 0zm-1.75 -7.296875l0 -2.609375l6.65625 0l0 2.609375l-6.65625 0zm8.362686 7.296875l0 -13.8125l2.921875 0l0 5.921875l-0.59375 0.21875q0.203125 -0.671875 0.734375 -1.21875q0.53125 -0.546875 1.28125 -0.875q0.75 -0.34375 1.5625 -0.34375q1.125 0 1.890625 0.453125q0.765625 0.453125 1.15625 1.359375q0.390625 0.90625 0.390625 2.21875l0 6.078125l-3.0 0l0 -5.84375q0 -0.59375 -0.171875 -0.984375q-0.171875 -0.390625 -0.515625 -0.578125q-0.34375 -0.203125 -0.84375 -0.1875q-0.390625 0 -0.734375 0.125q-0.328125 0.125 -0.578125 0.359375q-0.234375 0.21875 -0.375 0.53125q-0.140625 0.296875 -0.140625 0.640625l0 5.9375l-1.484375 0q-0.515625 0 -0.890625 0q-0.375 0 -0.609375 0z" fill-rule="nonzero"/><path fill="#000000" d="m44.69666 83.8486l0 -10.5625l1.6875 0.046875l-4.71875 5.78125l-0.4375 -0.5625l8.65625 0l0 2.609375l-10.078125 0l-1.265625 -2.4375l6.65625 -8.046875l2.5625 0l0 13.171875l-3.0625 0zm16.882935 0.203125q-1.296875 0 -2.296875 -0.65625q-0.984375 -0.671875 -1.5625 -1.828125q-0.578125 -1.171875 -0.578125 -2.65625q0 -1.5 0.578125 -2.65625q0.578125 -1.171875 1.578125 -1.84375q1.015625 -0.671875 2.3125 -0.671875q0.671875 0 1.28125 0.203125q0.625 0.203125 1.1249962 0.5625q0.5 0.34375 0.8125 0.8125q0.328125 0.453125 0.390625 0.9375l-0.71875 0.171875l0 -6.390625l3.0 0l0 13.8125l-2.765625 0l-0.171875 -2.25l0.59375 0.078125q-0.0625 0.46875 -0.375 0.90625q-0.296875 0.421875 -0.78125 0.75q-0.4843712 0.328125 -1.1093712 0.515625q-0.625 0.203125 -1.3125 0.203125zm0.765625 -2.484375q0.6875 0 1.1875 -0.328125q0.4999962 -0.34375 0.7656212 -0.9375q0.28125 -0.59375 0.28125 -1.390625q0 -0.828125 -0.28125 -1.421875q-0.265625 -0.59375 -0.7656212 -0.921875q-0.5 -0.34375 -1.1875 -0.34375q-0.6875 0 -1.1875 0.34375q-0.5 0.328125 -0.78125 0.921875q-0.28125 0.59375 -0.28125 1.421875q0 0.796875 0.28125 1.390625q0.28125 0.59375 0.78125 0.9375q0.5 0.328125 1.1875 0.328125zm11.341808 2.453125q-1.25 0 -2.234375 -0.65625q-0.984375 -0.671875 -1.5625 -1.828125q-0.578125 -1.171875 -0.578125 -2.65625q0 -1.5 0.578125 -2.65625q0.578125 -1.15625 1.578125 -1.8125q1.015625 -0.671875 2.3125 -0.671875q0.703125 0 1.28125 0.203125q0.59375 0.203125 1.046875 0.578125q0.453125 0.359375 0.765625 0.84375q0.3125 0.46875 0.46875 1.0l-0.625 -0.078125l0 -2.34375l2.96875 0l0 9.90625l-3.015625 0l0 -2.390625l0.671875 -0.015625q-0.15625 0.515625 -0.5 0.984375q-0.328125 0.46875 -0.8125 0.828125q-0.484375 0.34375 -1.078125 0.5625q-0.59375 0.203125 -1.265625 0.203125zm0.8125 -2.515625q0.703125 0 1.203125 -0.3125q0.5 -0.328125 0.78125 -0.90625q0.28125 -0.59375 0.28125 -1.40625q0 -0.796875 -0.28125 -1.375q-0.28125 -0.59375 -0.78125 -0.921875q-0.5 -0.328125 -1.203125 -0.328125q-0.671875 0 -1.171875 0.328125q-0.484375 0.328125 -0.765625 0.921875q-0.28125 0.578125 -0.28125 1.375q0 0.8125 0.28125 1.40625q0.28125 0.578125 0.765625 0.90625q0.5 0.3125 1.171875 0.3125zm8.638214 2.34375l0 -12.40625l2.984375 0l0 12.40625l-2.984375 0zm-1.75 -7.296875l0 -2.609375l6.65625 0l0 2.609375l-6.65625 0zm11.925598 7.46875q-1.25 0 -2.234375 -0.65625q-0.984375 -0.671875 -1.5625 -1.828125q-0.578125 -1.171875 -0.578125 -2.65625q0 -1.5 0.578125 -2.65625q0.578125 -1.15625 1.578125 -1.8125q1.015625 -0.671875 2.3125 -0.671875q0.703125 0 1.28125 0.203125q0.59375 0.203125 1.046875 0.578125q0.453125 0.359375 0.765625 0.84375q0.3125 0.46875 0.46875 1.0l-0.625 -0.078125l0 -2.34375l2.96875 0l0 9.90625l-3.015625 0l0 -2.390625l0.671875 -0.015625q-0.15625 0.515625 -0.5 0.984375q-0.328125 0.46875 -0.8125 0.828125q-0.484375 0.34375 -1.078125 0.5625q-0.59375 0.203125 -1.265625 0.203125zm0.8125 -2.515625q0.703125 0 1.203125 -0.3125q0.5 -0.328125 0.78125 -0.90625q0.28125 -0.59375 0.28125 -1.40625q0 -0.796875 -0.28125 -1.375q-0.28125 -0.59375 -0.78125 -0.921875q-0.5 -0.328125 -1.203125 -0.328125q-0.671875 0 -1.171875 0.328125q-0.484375 0.328125 -0.765625 0.921875q-0.28125 0.578125 -0.28125 1.375q0 0.8125 0.28125 1.40625q0.28125 0.578125 0.765625 0.90625q0.5 0.3125 1.171875 0.3125zm11.169464 2.53125q-1.46875 0 -2.578125 -0.46875q-1.109375 -0.46875 -1.765625 -1.25l1.8125 -1.5625q0.578125 0.578125 1.296875 0.84375q0.734375 0.265625 1.390625 0.265625q0.265625 0 0.46875 -0.046875q0.203125 -0.0625 0.34375 -0.15625q0.140625 -0.109375 0.21875 -0.25q0.078125 -0.140625 0.078125 -0.328125q0 -0.375 -0.34375 -0.578125q-0.171875 -0.09375 -0.5625 -0.21875q-0.390625 -0.125 -1.0 -0.296875q-0.875 -0.21875 -1.53125 -0.53125q-0.640625 -0.3125 -1.046875 -0.71875q-0.375 -0.390625 -0.578125 -0.859375q-0.203125 -0.484375 -0.203125 -1.078125q0 -0.703125 0.328125 -1.25q0.328125 -0.5625 0.875 -0.96875q0.546875 -0.421875 1.265625 -0.625q0.71875 -0.21875 1.484375 -0.21875q0.828125 0 1.5625 0.1875q0.75 0.1875 1.390625 0.53125q0.65625 0.328125 1.15625 0.796875l-1.578125 1.75q-0.328125 -0.3125 -0.75 -0.5625q-0.421875 -0.265625 -0.875 -0.40625q-0.4375 -0.15625 -0.8125 -0.15625q-0.28125 0 -0.5 0.046875q-0.203125 0.046875 -0.359375 0.15625q-0.140625 0.09375 -0.21875 0.234375q-0.078125 0.140625 -0.078125 0.328125q0 0.1875 0.09375 0.359375q0.109375 0.171875 0.296875 0.28125q0.1875 0.109375 0.59375 0.25q0.421875 0.140625 1.125 0.34375q0.875 0.234375 1.5 0.546875q0.640625 0.296875 1.015625 0.703125q0.296875 0.3125 0.4375 0.734375q0.15625 0.421875 0.15625 0.90625q0 0.953125 -0.53125 1.6875q-0.53125 0.734375 -1.46875 1.15625q-0.921875 0.421875 -2.109375 0.421875zm10.609848 0q-1.640625 0 -2.859375 -0.65625q-1.203125 -0.671875 -1.875 -1.8125q-0.671875 -1.15625 -0.671875 -2.625q0 -1.140625 0.359375 -2.09375q0.375 -0.953125 1.046875 -1.640625q0.671875 -0.703125 1.59375 -1.078125q0.9375 -0.390625 2.03125 -0.390625q1.046875 0 1.90625 0.375q0.875 0.375 1.5 1.046875q0.640625 0.671875 0.96875 1.59375q0.34375 0.90625 0.3125 1.984375l-0.03125 0.796875l-7.890625 0l-0.421875 -1.671875l5.890625 0l-0.3125 0.34375l0 -0.359375q-0.03125 -0.46875 -0.296875 -0.828125q-0.25 -0.375 -0.65625 -0.578125q-0.40625 -0.203125 -0.9375 -0.203125q-0.71875 0 -1.234375 0.296875q-0.515625 0.28125 -0.78125 0.828125q-0.25 0.546875 -0.25 1.359375q0 0.8125 0.34375 1.421875q0.34375 0.609375 1.0 0.953125q0.671875 0.328125 1.578125 0.328125q0.640625 0 1.125 -0.1875q0.5 -0.1875 1.078125 -0.640625l1.40625 1.984375q-0.578125 0.5 -1.234375 0.828125q-0.65625 0.3125 -1.34375 0.46875q-0.671875 0.15625 -1.34375 0.15625zm7.0263214 -0.1875l0 -12.40625l2.984375 0l0 12.40625l-2.984375 0zm-1.75 -7.296875l0 -2.609375l6.65625 0l0 2.609375l-6.65625 0zm12.079773 7.484375q-1.46875 0 -2.578125 -0.46875q-1.109375 -0.46875 -1.765625 -1.25l1.8125 -1.5625q0.578125 0.578125 1.296875 0.84375q0.734375 0.265625 1.390625 0.265625q0.265625 0 0.46875 -0.046875q0.203125 -0.0625 0.34375 -0.15625q0.140625 -0.109375 0.21875 -0.25q0.078125 -0.140625 0.078125 -0.328125q0 -0.375 -0.34375 -0.578125q-0.171875 -0.09375 -0.5625 -0.21875q-0.390625 -0.125 -1.0 -0.296875q-0.875 -0.21875 -1.53125 -0.53125q-0.640625 -0.3125 -1.046875 -0.71875q-0.375 -0.390625 -0.578125 -0.859375q-0.203125 -0.484375 -0.203125 -1.078125q0 -0.703125 0.328125 -1.25q0.328125 -0.5625 0.875 -0.96875q0.546875 -0.421875 1.265625 -0.625q0.71875 -0.21875 1.484375 -0.21875q0.828125 0 1.5625 0.1875q0.75 0.1875 1.390625 0.53125q0.65625 0.328125 1.15625 0.796875l-1.578125 1.75q-0.328125 -0.3125 -0.75 -0.5625q-0.421875 -0.265625 -0.875 -0.40625q-0.4375 -0.15625 -0.8125 -0.15625q-0.28125 0 -0.5 0.046875q-0.203125 0.046875 -0.359375 0.15625q-0.140625 0.09375 -0.21875 0.234375q-0.078125 0.140625 -0.078125 0.328125q0 0.1875 0.09375 0.359375q0.109375 0.171875 0.296875 0.28125q0.1875 0.109375 0.59375 0.25q0.421875 0.140625 1.125 0.34375q0.875 0.234375 1.5 0.546875q0.640625 0.296875 1.015625 0.703125q0.296875 0.3125 0.4375 0.734375q0.15625 0.421875 0.15625 0.90625q0 0.953125 -0.53125 1.6875q-0.53125 0.734375 -1.46875 1.15625q-0.921875 0.421875 -2.109375 0.421875z" fill-rule="nonzero"/><path fill="#000000" fill-opacity="0.0" d="m375.90027 -0.8293963l169.3858 0l0 155.1181l-169.3858 0z" fill-rule="evenodd"/><path fill="#000000" d="m415.26157 26.090601l5.171875 -13.062499l2.671875 0l5.140625 13.062499l-3.21875 0l-2.453125 -6.625q-0.15625 -0.390625 -0.3125 -0.828125q-0.140625 -0.453125 -0.296875 -0.921875q-0.140625 -0.484375 -0.28125 -0.9375q-0.140625 -0.46875 -0.234375 -0.85937405l0.5625 -0.015625q-0.109375 0.46874905 -0.25 0.92187405q-0.140625 0.4375 -0.28125 0.875q-0.140625 0.4375 -0.3125 0.875q-0.15625 0.4375 -0.3125 0.90625l-2.46875 6.609375l-3.125 0zm2.453125 -2.5l1.0 -2.390625l6.0 0l0.96875 2.390625l-7.96875 0zm21.558044 2.703125q-1.296875 0 -2.296875 -0.65625q-0.984375 -0.671875 -1.5625 -1.828125q-0.578125 -1.171875 -0.578125 -2.65625q0 -1.5 0.578125 -2.65625q0.578125 -1.171875 1.578125 -1.84375q1.015625 -0.67187405 2.3125 -0.67187405q0.671875 0 1.28125 0.20312405q0.625 0.203125 1.125 0.5625q0.5 0.34375 0.8125 0.8125q0.328125 0.453125 0.390625 0.9375l-0.71875 0.171875l0 -6.390624l3.0 0l0 13.812499l-2.765625 0l-0.171875 -2.25l0.59375 0.078125q-0.0625 0.46875 -0.375 0.90625q-0.296875 0.421875 -0.78125 0.75q-0.484375 0.328125 -1.109375 0.515625q-0.625 0.203125 -1.3125 0.203125zm0.765625 -2.484375q0.6875 0 1.1875 -0.328125q0.5 -0.34375 0.765625 -0.9375q0.28125 -0.59375 0.28125 -1.390625q0 -0.828125 -0.28125 -1.421875q-0.265625 -0.59375 -0.765625 -0.921875q-0.5 -0.34375 -1.1875 -0.34375q-0.6875 0 -1.1875 0.34375q-0.5 0.328125 -0.78125 0.921875q-0.28125 0.59375 -0.28125 1.421875q0 0.796875 0.28125 1.390625q0.28125 0.59375 0.78125 0.9375q0.5 0.328125 1.1875 0.328125zm11.341827 2.453125q-1.25 0 -2.234375 -0.65625q-0.984375 -0.671875 -1.5625 -1.828125q-0.578125 -1.171875 -0.578125 -2.65625q0 -1.5 0.578125 -2.65625q0.578125 -1.15625 1.578125 -1.8125q1.015625 -0.67187405 2.3125 -0.67187405q0.703125 0 1.28125 0.20312405q0.59375 0.203125 1.046875 0.578125q0.453125 0.359375 0.765625 0.84375q0.3125 0.46875 0.46875 1.0l-0.625 -0.078125l0 -2.34375l2.96875 0l0 9.90625l-3.015625 0l0 -2.390625l0.671875 -0.015625q-0.15625 0.515625 -0.5 0.984375q-0.328125 0.46875 -0.8125 0.828125q-0.484375 0.34375 -1.078125 0.5625q-0.59375 0.203125 -1.265625 0.203125zm0.8125 -2.515625q0.703125 0 1.203125 -0.3125q0.5 -0.328125 0.78125 -0.90625q0.28125 -0.59375 0.28125 -1.40625q0 -0.796875 -0.28125 -1.375q-0.28125 -0.59375 -0.78125 -0.921875q-0.5 -0.328125 -1.203125 -0.328125q-0.671875 0 -1.171875 0.328125q-0.484375 0.328125 -0.765625 0.921875q-0.28125 0.578125 -0.28125 1.375q0 0.8125 0.28125 1.40625q0.28125 0.578125 0.765625 0.90625q0.5 0.3125 1.171875 0.3125zm8.638214 2.34375l0 -12.406249l2.984375 0l0 12.406249l-2.984375 0zm-1.75 -7.296875l0 -2.609375l6.65625 0l0 2.609375l-6.65625 0zm11.925598 7.46875q-1.25 0 -2.234375 -0.65625q-0.984375 -0.671875 -1.5625 -1.828125q-0.578125 -1.171875 -0.578125 -2.65625q0 -1.5 0.578125 -2.65625q0.578125 -1.15625 1.578125 -1.8125q1.015625 -0.67187405 2.3125 -0.67187405q0.703125 0 1.28125 0.20312405q0.59375 0.203125 1.046875 0.578125q0.453125 0.359375 0.765625 0.84375q0.3125 0.46875 0.46875 1.0l-0.625 -0.078125l0 -2.34375l2.96875 0l0 9.90625l-3.015625 0l0 -2.390625l0.671875 -0.015625q-0.15625 0.515625 -0.5 0.984375q-0.328125 0.46875 -0.8125 0.828125q-0.484375 0.34375 -1.078125 0.5625q-0.59375 0.203125 -1.265625 0.203125zm0.8125 -2.515625q0.703125 0 1.203125 -0.3125q0.5 -0.328125 0.78125 -0.90625q0.28125 -0.59375 0.28125 -1.40625q0 -0.796875 -0.28125 -1.375q-0.28125 -0.59375 -0.78125 -0.921875q-0.5 -0.328125 -1.203125 -0.328125q-0.671875 0 -1.171875 0.328125q-0.484375 0.328125 -0.765625 0.921875q-0.28125 0.578125 -0.28125 1.375q0 0.8125 0.28125 1.40625q0.28125 0.578125 0.765625 0.90625q0.5 0.3125 1.171875 0.3125zm11.169464 2.53125q-1.46875 0 -2.578125 -0.46875q-1.109375 -0.46875 -1.765625 -1.25l1.8125 -1.5625q0.578125 0.578125 1.296875 0.84375q0.734375 0.265625 1.390625 0.265625q0.265625 0 0.46875 -0.046875q0.203125 -0.0625 0.34375 -0.15625q0.140625 -0.109375 0.21875 -0.25q0.078125 -0.140625 0.078125 -0.328125q0 -0.375 -0.34375 -0.578125q-0.171875 -0.09375 -0.5625 -0.21875q-0.390625 -0.125 -1.0 -0.296875q-0.875 -0.21875 -1.53125 -0.53125q-0.640625 -0.3125 -1.046875 -0.71875q-0.375 -0.390625 -0.578125 -0.859375q-0.203125 -0.484375 -0.203125 -1.078125q0 -0.703125 0.328125 -1.25q0.328125 -0.5625 0.875 -0.96875q0.546875 -0.421875 1.265625 -0.625q0.71875 -0.21874905 1.484375 -0.21874905q0.828125 0 1.5625 0.18749905q0.75 0.1875 1.390625 0.53125q0.65625 0.328125 1.15625 0.796875l-1.578125 1.75q-0.328125 -0.3125 -0.75 -0.5625q-0.421875 -0.265625 -0.875 -0.40625q-0.4375 -0.15625 -0.8125 -0.15625q-0.28125 0 -0.5 0.046875q-0.203125 0.046875 -0.359375 0.15625q-0.140625 0.09375 -0.21875 0.234375q-0.078125 0.140625 -0.078125 0.328125q0 0.1875 0.09375 0.359375q0.109375 0.171875 0.296875 0.28125q0.1875 0.109375 0.59375 0.25q0.421875 0.140625 1.125 0.34375q0.875 0.234375 1.5 0.546875q0.640625 0.296875 1.015625 0.703125q0.296875 0.3125 0.4375 0.734375q0.15625 0.421875 0.15625 0.90625q0 0.953125 -0.53125 1.6875q-0.53125 0.734375 -1.46875 1.15625q-0.921875 0.421875 -2.109375 0.421875zm10.609833 0q-1.640625 0 -2.859375 -0.65625q-1.203125 -0.671875 -1.875 -1.8125q-0.671875 -1.15625 -0.671875 -2.625q0 -1.140625 0.359375 -2.09375q0.375 -0.953125 1.046875 -1.640625q0.671875 -0.703125 1.59375 -1.078125q0.9375 -0.39062405 2.03125 -0.39062405q1.046875 0 1.90625 0.37499905q0.875 0.375 1.5 1.046875q0.640625 0.671875 0.96875 1.59375q0.34375 0.90625 0.3125 1.984375l-0.03125 0.796875l-7.890625 0l-0.421875 -1.671875l5.890625 0l-0.3125 0.34375l0 -0.359375q-0.03125 -0.46875 -0.296875 -0.828125q-0.25 -0.375 -0.65625 -0.578125q-0.40625 -0.203125 -0.9375 -0.203125q-0.71875 0 -1.234375 0.296875q-0.515625 0.28125 -0.78125 0.828125q-0.25 0.546875 -0.25 1.359375q0 0.8125 0.34375 1.421875q0.34375 0.609375 1.0 0.953125q0.671875 0.328125 1.578125 0.328125q0.640625 0 1.125 -0.1875q0.5 -0.1875 1.078125 -0.640625l1.40625 1.984375q-0.578125 0.5 -1.234375 0.828125q-0.65625 0.3125 -1.34375 0.46875q-0.671875 0.15625 -1.34375 0.15625zm7.0263367 -0.1875l0 -12.406249l2.984375 0l0 12.406249l-2.984375 0zm-1.75 -7.296875l0 -2.609375l6.65625 0l0 2.609375l-6.65625 0z" fill-rule="nonzero"/><path fill="#000000" d="m391.00577 48.6781q-1.4375 0 -2.578125 -0.671875q-1.140625 -0.671875 -1.796875 -1.828125q-0.65625 -1.171875 -0.65625 -2.65625q0 -1.46875 0.65625 -2.625q0.65625 -1.171875 1.796875 -1.84375q1.140625 -0.671875 2.578125 -0.671875q1.328125 0 2.4375 0.46875q1.109375 0.46875 1.765625 1.296875l-1.625 1.9375q-0.265625 -0.296875 -0.625 -0.546875q-0.34375 -0.265625 -0.78125 -0.40625q-0.421875 -0.15625 -0.890625 -0.15625q-0.703125 0 -1.25 0.328125q-0.546875 0.328125 -0.84375 0.90625q-0.296875 0.578125 -0.296875 1.3125q0 0.71875 0.296875 1.296875q0.3125 0.578125 0.859375 0.921875q0.546875 0.328125 1.234375 0.328125q0.484375 0 0.890625 -0.125q0.40625 -0.125 0.75 -0.359375q0.359375 -0.25 0.65625 -0.59375l1.59375 1.953125q-0.625 0.796875 -1.765625 1.265625q-1.125 0.46875 -2.40625 0.46875zm10.480164 0q-1.546875 0 -2.75 -0.671875q-1.203125 -0.671875 -1.90625 -1.828125q-0.6875 -1.15625 -0.6875 -2.65625q0 -1.484375 0.6875 -2.640625q0.703125 -1.15625 1.90625 -1.828125q1.203125 -0.671875 2.75 -0.671875q1.546875 0 2.75 0.671875q1.203125 0.671875 1.890625 1.828125q0.703125 1.15625 0.703125 2.640625q0 1.5 -0.703125 2.65625q-0.6875 1.15625 -1.890625 1.828125q-1.203125 0.671875 -2.75 0.671875zm0 -2.578125q0.671875 0 1.1875 -0.328125q0.53125 -0.34375 0.828125 -0.921875q0.296875 -0.578125 0.28125 -1.328125q0.015625 -0.734375 -0.28125 -1.328125q-0.296875 -0.59375 -0.828125 -0.921875q-0.515625 -0.34375 -1.1875 -0.34375q-0.671875 0 -1.203125 0.34375q-0.53125 0.328125 -0.828125 0.921875q-0.296875 0.59375 -0.28125 1.328125q-0.015625 0.75 0.28125 1.328125q0.296875 0.578125 0.828125 0.921875q0.53125 0.328125 1.203125 0.328125zm7.2867737 2.390625l0 -9.90625l2.828125 0l0.09375 1.796875l-0.390625 0.015625q0.21875 -0.484375 0.5625 -0.859375q0.34375 -0.375 0.78125 -0.625q0.453125 -0.25 0.921875 -0.375q0.46875 -0.140625 0.96875 -0.140625q0.71875 0 1.3125 0.234375q0.609375 0.21875 1.046875 0.71875q0.453125 0.484375 0.71875 1.328125l-0.46875 -0.046875l0.140625 -0.296875q0.25 -0.4375 0.625 -0.796875q0.390625 -0.375 0.84375 -0.625q0.46875 -0.25 0.96875 -0.375q0.515625 -0.140625 0.984375 -0.140625q1.171875 0 1.953125 0.46875q0.78125 0.453125 1.1875 1.375q0.40625 0.90625 0.40625 2.203125l0 6.046875l-3.015625 0l0 -5.796875q0 -0.609375 -0.171875 -1.0q-0.15625 -0.390625 -0.484375 -0.578125q-0.328125 -0.203125 -0.8125 -0.203125q-0.390625 0 -0.71875 0.140625q-0.328125 0.125 -0.5625 0.359375q-0.234375 0.21875 -0.359375 0.515625q-0.125 0.296875 -0.125 0.671875l0 5.890625l-3.015625 0l0 -5.828125q0 -0.546875 -0.171875 -0.9375q-0.15625 -0.390625 -0.5 -0.59375q-0.328125 -0.21875 -0.78125 -0.21875q-0.390625 0 -0.71875 0.140625q-0.328125 0.125 -0.5625 0.359375q-0.21875 0.21875 -0.359375 0.515625q-0.125 0.296875 -0.125 0.65625l0 5.90625l-3.0 0zm23.916077 0.203125q-0.671875 0 -1.296875 -0.1875q-0.609375 -0.1875 -1.109375 -0.5q-0.484375 -0.3125 -0.8125 -0.734375q-0.328125 -0.421875 -0.4375 -0.875l0.640625 -0.21875l-0.15625 2.296875l-2.78125 0l0 -13.796875l3.0 0l0 6.28125l-0.609375 -0.234375q0.109375 -0.484375 0.421875 -0.890625q0.3125 -0.421875 0.796875 -0.75q0.484375 -0.328125 1.0625 -0.515625q0.578125 -0.1875 1.203125 -0.1875q1.28125 0 2.28125 0.671875q1.0 0.65625 1.578125 1.828125q0.578125 1.15625 0.578125 2.640625q0 1.515625 -0.578125 2.6875q-0.5625 1.15625 -1.546875 1.828125q-0.984375 0.65625 -2.234375 0.65625zm-0.78125 -2.515625q0.65625 0 1.15625 -0.328125q0.515625 -0.34375 0.78125 -0.921875q0.28125 -0.59375 0.28125 -1.40625q0 -0.78125 -0.28125 -1.375q-0.265625 -0.59375 -0.78125 -0.90625q-0.5 -0.328125 -1.15625 -0.328125q-0.703125 0 -1.203125 0.328125q-0.5 0.3125 -0.78125 0.90625q-0.28125 0.59375 -0.28125 1.375q0 0.8125 0.28125 1.40625q0.28125 0.578125 0.78125 0.921875q0.5 0.328125 1.203125 0.328125zm7.275818 2.3125l0 -9.90625l2.984375 0l0 9.90625l-2.984375 0zm1.484375 -11.859375q-0.84375 0 -1.328125 -0.40625q-0.46875 -0.40625 -0.46875 -1.140625q0 -0.671875 0.484375 -1.09375q0.5 -0.4375 1.3125 -0.4375q0.84375 0 1.296875 0.40625q0.46875 0.390625 0.46875 1.125q0 0.6875 -0.46875 1.125q-0.46875 0.421875 -1.296875 0.421875zm4.2950745 11.859375l0 -9.90625l2.828125 0l0.09375 2.015625l-0.59375 0.21875q0.203125 -0.671875 0.734375 -1.21875q0.53125 -0.546875 1.28125 -0.875q0.75 -0.34375 1.5625 -0.34375q1.125 0 1.890625 0.453125q0.765625 0.453125 1.15625 1.359375q0.390625 0.90625 0.390625 2.21875l0 6.078125l-3.0 0l0 -5.84375q0 -0.59375 -0.171875 -0.984375q-0.171875 -0.390625 -0.515625 -0.578125q-0.34375 -0.203125 -0.84375 -0.1875q-0.390625 0 -0.734375 0.125q-0.328125 0.125 -0.578125 0.359375q-0.234375 0.21875 -0.375 0.53125q-0.140625 0.296875 -0.140625 0.640625l0 5.9375l-1.484375 0q-0.515625 0 -0.890625 0q-0.375 0 -0.609375 0zm12.018616 0l0 -9.90625l2.984375 0l0 9.90625l-2.984375 0zm1.484375 -11.859375q-0.84375 0 -1.328125 -0.40625q-0.46875 -0.40625 -0.46875 -1.140625q0 -0.671875 0.484375 -1.09375q0.5 -0.4375 1.3125 -0.4375q0.84375 0 1.296875 0.40625q0.46875 0.390625 0.46875 1.125q0 0.6875 -0.46875 1.125q-0.46875 0.421875 -1.296875 0.421875zm4.2950745 11.859375l0 -9.90625l2.828125 0l0.09375 2.015625l-0.59375 0.21875q0.203125 -0.671875 0.734375 -1.21875q0.53125 -0.546875 1.28125 -0.875q0.75 -0.34375 1.5625 -0.34375q1.125 0 1.890625 0.453125q0.765625 0.453125 1.15625 1.359375q0.390625 0.90625 0.390625 2.21875l0 6.078125l-3.0 0l0 -5.84375q0 -0.59375 -0.171875 -0.984375q-0.171875 -0.390625 -0.515625 -0.578125q-0.34375 -0.203125 -0.84375 -0.1875q-0.390625 0 -0.734375 0.125q-0.328125 0.125 -0.578125 0.359375q-0.234375 0.21875 -0.375 0.53125q-0.140625 0.296875 -0.140625 0.640625l0 5.9375l-1.484375 0q-0.515625 0 -0.890625 0q-0.375 0 -0.609375 0zm16.37799 4.296875q-1.21875 0 -2.421875 -0.359375q-1.203125 -0.359375 -1.9375 -0.921875l1.03125 -2.078125q0.390625 0.25 0.859375 0.4375q0.484375 0.203125 1.0 0.3125q0.53125 0.125 1.078125 0.125q0.953125 0 1.546875 -0.28125q0.59375 -0.28125 0.890625 -0.859375q0.296875 -0.5625 0.296875 -1.421875l0 -1.65625l0.578125 0.09375q-0.125 0.609375 -0.640625 1.125q-0.515625 0.5 -1.265625 0.8125q-0.734375 0.296875 -1.578125 0.296875q-1.34375 0 -2.40625 -0.625q-1.046875 -0.625 -1.65625 -1.734375q-0.59375 -1.109375 -0.59375 -2.5625q0 -1.5 0.59375 -2.640625q0.59375 -1.140625 1.640625 -1.796875q1.046875 -0.671875 2.34375 -0.671875q0.5625 0 1.078125 0.140625q0.515625 0.125 0.953125 0.34375q0.4375 0.203125 0.78125 0.5q0.34375 0.28125 0.5625 0.625q0.21875 0.328125 0.28125 0.6875l-0.609375 0.140625l0.109375 -2.234375l2.84375 0l0 9.109375q0 1.203125 -0.375 2.140625q-0.359375 0.953125 -1.0625 1.609375q-0.703125 0.671875 -1.6875 1.0q-0.984375 0.34375 -2.234375 0.34375zm0.078125 -6.6875q0.71875 0 1.25 -0.328125q0.53125 -0.328125 0.8125 -0.90625q0.296875 -0.578125 0.296875 -1.359375q0 -0.78125 -0.296875 -1.359375q-0.28125 -0.59375 -0.8125 -0.921875q-0.53125 -0.328125 -1.25 -0.328125q-0.71875 0 -1.25 0.328125q-0.515625 0.328125 -0.8125 0.921875q-0.28125 0.578125 -0.28125 1.359375q0 0.78125 0.28125 1.359375q0.296875 0.578125 0.8125 0.90625q0.53125 0.328125 1.25 0.328125zm17.591644 2.59375q-1.296875 0 -2.296875 -0.65625q-0.984375 -0.671875 -1.5625 -1.828125q-0.578125 -1.171875 -0.578125 -2.65625q0 -1.5 0.578125 -2.65625q0.578125 -1.171875 1.578125 -1.84375q1.015625 -0.671875 2.3125 -0.671875q0.671875 0 1.28125 0.203125q0.625 0.203125 1.125 0.5625q0.5 0.34375 0.8125 0.8125q0.328125 0.453125 0.390625 0.9375l-0.71875 0.171875l0 -6.390625l3.0 0l0 13.8125l-2.765625 0l-0.171875 -2.25l0.59375 0.078125q-0.0625 0.46875 -0.375 0.90625q-0.296875 0.421875 -0.78125 0.75q-0.484375 0.328125 -1.109375 0.515625q-0.625 0.203125 -1.3125 0.203125zm0.765625 -2.484375q0.6875 0 1.1875 -0.328125q0.5 -0.34375 0.765625 -0.9375q0.28125 -0.59375 0.28125 -1.390625q0 -0.828125 -0.28125 -1.421875q-0.265625 -0.59375 -0.765625 -0.921875q-0.5 -0.34375 -1.1875 -0.34375q-0.6875 0 -1.1875 0.34375q-0.5 0.328125 -0.78125 0.921875q-0.28125 0.59375 -0.28125 1.421875q0 0.796875 0.28125 1.390625q0.28125 0.59375 0.78125 0.9375q0.5 0.328125 1.1875 0.328125zm11.341827 2.453125q-1.25 0 -2.234375 -0.65625q-0.984375 -0.671875 -1.5625 -1.828125q-0.578125 -1.171875 -0.578125 -2.65625q0 -1.5 0.578125 -2.65625q0.578125 -1.15625 1.578125 -1.8125q1.015625 -0.671875 2.3125 -0.671875q0.703125 0 1.28125 0.203125q0.59375 0.203125 1.046875 0.578125q0.453125 0.359375 0.765625 0.84375q0.3125 0.46875 0.46875 1.0l-0.625 -0.078125l0 -2.34375l2.96875 0l0 9.90625l-3.015625 0l0 -2.390625l0.671875 -0.015625q-0.15625 0.515625 -0.5 0.984375q-0.328125 0.46875 -0.8125 0.828125q-0.484375 0.34375 -1.078125 0.5625q-0.59375 0.203125 -1.265625 0.203125zm0.8125 -2.515625q0.703125 0 1.203125 -0.3125q0.5 -0.328125 0.78125 -0.90625q0.28125 -0.59375 0.28125 -1.40625q0 -0.796875 -0.28125 -1.375q-0.28125 -0.59375 -0.78125 -0.921875q-0.5 -0.328125 -1.203125 -0.328125q-0.671875 0 -1.171875 0.328125q-0.484375 0.328125 -0.765625 0.921875q-0.28125 0.578125 -0.28125 1.375q0 0.8125 0.28125 1.40625q0.28125 0.578125 0.765625 0.90625q0.5 0.3125 1.171875 0.3125zm8.638184 2.34375l0 -12.40625l2.984375 0l0 12.40625l-2.984375 0zm-1.75 -7.296875l0 -2.609375l6.65625 0l0 2.609375l-6.65625 0zm11.925598 7.46875q-1.25 0 -2.234375 -0.65625q-0.984375 -0.671875 -1.5625 -1.828125q-0.578125 -1.171875 -0.578125 -2.65625q0 -1.5 0.578125 -2.65625q0.578125 -1.15625 1.578125 -1.8125q1.015625 -0.671875 2.3125 -0.671875q0.703125 0 1.28125 0.203125q0.59375 0.203125 1.046875 0.578125q0.453125 0.359375 0.765625 0.84375q0.3125 0.46875 0.46875 1.0l-0.625 -0.078125l0 -2.34375l2.96875 0l0 9.90625l-3.015625 0l0 -2.390625l0.671875 -0.015625q-0.15625 0.515625 -0.5 0.984375q-0.328125 0.46875 -0.8125 0.828125q-0.484375 0.34375 -1.078125 0.5625q-0.59375 0.203125 -1.265625 0.203125zm0.8125 -2.515625q0.703125 0 1.203125 -0.3125q0.5 -0.328125 0.78125 -0.90625q0.28125 -0.59375 0.28125 -1.40625q0 -0.796875 -0.28125 -1.375q-0.28125 -0.59375 -0.78125 -0.921875q-0.5 -0.328125 -1.203125 -0.328125q-0.671875 0 -1.171875 0.328125q-0.484375 0.328125 -0.765625 0.921875q-0.28125 0.578125 -0.28125 1.375q0 0.8125 0.28125 1.40625q0.28125 0.578125 0.765625 0.90625q0.5 0.3125 1.171875 0.3125z" fill-rule="nonzero"/><path fill="#000000" d="m415.9088 70.890594l0 -10.390621q0 -0.96875 0.421875 -1.75q0.421875 -0.78125 1.171875 -1.234375q0.765625 -0.46875 1.765625 -0.46875q0.703125 0 1.296875 0.203125q0.609375 0.203125 1.078125 0.578125l-0.859375 2.1875q-0.25 -0.125 -0.46875 -0.203125q-0.21875 -0.078125 -0.40625 -0.078125q-0.34375 0 -0.5625 0.109375q-0.21875 0.109375 -0.328125 0.34375q-0.109375 0.234375 -0.109375 0.578125l0 10.124996l-1.484375 0q-0.5 0 -0.890625 0q-0.375 0 -0.625 0zm-1.4375 -7.156246l0 -2.46875l6.484375 0l0 2.46875l-6.484375 0zm8.160034 7.156246l0 -9.906246l2.828125 0l0.140625 3.2343712l-0.5625 -0.6249962q0.21875 -0.796875 0.734375 -1.421875q0.515625 -0.640625 1.203125 -1.015625q0.6875 -0.375 1.46875 -0.375q0.34375 0 0.625 0.0625q0.296875 0.046875 0.53125 0.125l-0.8125 3.2968712q-0.203125 -0.125 -0.5625 -0.203125q-0.34375 -0.093746185 -0.703125 -0.093746185q-0.421875 0 -0.78125 0.14062119q-0.34375 0.140625 -0.59375 0.40625q-0.234375 0.25 -0.375 0.609375q-0.140625 0.359375 -0.140625 0.796875l0 4.96875l-3.0 0zm12.734192 0.1875q-1.546875 0 -2.75 -0.671875q-1.203125 -0.671875 -1.90625 -1.828125q-0.6875 -1.15625 -0.6875 -2.65625q0 -1.484375 0.6875 -2.6406212q0.703125 -1.15625 1.90625 -1.828125q1.203125 -0.671875 2.75 -0.671875q1.546875 0 2.75 0.671875q1.203125 0.671875 1.890625 1.828125q0.703125 1.1562462 0.703125 2.6406212q0 1.5 -0.703125 2.65625q-0.6875 1.15625 -1.890625 1.828125q-1.203125 0.671875 -2.75 0.671875zm0 -2.578125q0.671875 0 1.1875 -0.328125q0.53125 -0.34375 0.828125 -0.921875q0.296875 -0.578125 0.28125 -1.328125q0.015625 -0.734375 -0.28125 -1.328125q-0.296875 -0.5937462 -0.828125 -0.9218712q-0.515625 -0.34375 -1.1875 -0.34375q-0.671875 0 -1.203125 0.34375q-0.53125 0.328125 -0.828125 0.9218712q-0.296875 0.59375 -0.28125 1.328125q-0.015625 0.75 0.28125 1.328125q0.296875 0.578125 0.828125 0.921875q0.53125 0.328125 1.203125 0.328125zm7.2867737 2.390625l0 -9.906246l2.828125 0l0.09375 1.796875l-0.390625 0.015625q0.21875 -0.484375 0.5625 -0.859375q0.34375 -0.375 0.78125 -0.625q0.453125 -0.25 0.921875 -0.375q0.46875 -0.140625 0.96875 -0.140625q0.71875 0 1.3125 0.234375q0.609375 0.21875 1.046875 0.71875q0.453125 0.484375 0.71875 1.328125l-0.46875 -0.046875l0.140625 -0.296875q0.25 -0.4375 0.625 -0.796875q0.390625 -0.375 0.84375 -0.625q0.46875 -0.25 0.96875 -0.375q0.515625 -0.140625 0.984375 -0.140625q1.171875 0 1.953125 0.46875q0.78125 0.453125 1.1875 1.375q0.40625 0.90625 0.40625 2.2031212l0 6.046875l-3.015625 0l0 -5.796875q0 -0.609375 -0.171875 -1.0q-0.15625 -0.3906212 -0.484375 -0.5781212q-0.328125 -0.203125 -0.8125 -0.203125q-0.390625 0 -0.71875 0.140625q-0.328125 0.125 -0.5625 0.359375q-0.234375 0.21874619 -0.359375 0.5156212q-0.125 0.296875 -0.125 0.671875l0 5.890625l-3.015625 0l0 -5.828125q0 -0.546875 -0.171875 -0.9375q-0.15625 -0.3906212 -0.5 -0.5937462q-0.328125 -0.21875 -0.78125 -0.21875q-0.390625 0 -0.71875 0.140625q-0.328125 0.125 -0.5625 0.359375q-0.21875 0.21874619 -0.359375 0.5156212q-0.125 0.296875 -0.125 0.65625l0 5.90625l-3.0 0zm27.589203 0.171875q-1.25 0 -2.234375 -0.65625q-0.984375 -0.671875 -1.5625 -1.828125q-0.578125 -1.171875 -0.578125 -2.65625q0 -1.5 0.578125 -2.6562462q0.578125 -1.15625 1.578125 -1.8125q1.015625 -0.671875 2.3125 -0.671875q0.703125 0 1.28125 0.203125q0.59375 0.203125 1.046875 0.578125q0.453125 0.359375 0.765625 0.84375q0.3125 0.46875 0.46875 1.0l-0.625 -0.078125l0 -2.34375l2.96875 0l0 9.906246l-3.015625 0l0 -2.390625l0.671875 -0.015625q-0.15625 0.515625 -0.5 0.984375q-0.328125 0.46875 -0.8125 0.828125q-0.484375 0.34375 -1.078125 0.5625q-0.59375 0.203125 -1.265625 0.203125zm0.8125 -2.515625q0.703125 0 1.203125 -0.3125q0.5 -0.328125 0.78125 -0.90625q0.28125 -0.59375 0.28125 -1.40625q0 -0.796875 -0.28125 -1.375q-0.28125 -0.5937462 -0.78125 -0.9218712q-0.5 -0.328125 -1.203125 -0.328125q-0.671875 0 -1.171875 0.328125q-0.484375 0.328125 -0.765625 0.9218712q-0.28125 0.578125 -0.28125 1.375q0 0.8125 0.28125 1.40625q0.28125 0.578125 0.765625 0.90625q0.5 0.3125 1.171875 0.3125zm7.841339 2.34375l0 -13.812496l2.984375 0l0 13.812496l-2.984375 0zm5.671509 0l0 -13.812496l2.984375 0l0 13.812496l-2.984375 0zm16.813385 0l0 -10.562496l1.6875 0.046875l-4.71875 5.781246l-0.4375 -0.5625l8.65625 0l0 2.609375l-10.078125 0l-1.265625 -2.4375l6.65625 -8.046871l2.5625 0l0 13.171871l-3.0625 0z" fill-rule="nonzero"/><path fill="#000000" d="m424.08508 93.478096q-1.640625 0 -2.859375 -0.65625q-1.203125 -0.671875 -1.875 -1.8125q-0.671875 -1.15625 -0.671875 -2.625q0 -1.140625 0.359375 -2.09375q0.375 -0.953125 1.046875 -1.640625q0.671875 -0.703125 1.59375 -1.078125q0.9375 -0.390625 2.03125 -0.390625q1.046875 0 1.90625 0.375q0.875 0.375 1.5 1.046875q0.640625 0.671875 0.96875 1.59375q0.34375 0.90625 0.3125 1.984375l-0.03125 0.796875l-7.890625 0l-0.421875 -1.671875l5.890625 0l-0.3125 0.34375l0 -0.359375q-0.03125 -0.46875 -0.296875 -0.828125q-0.25 -0.375 -0.65625 -0.578125q-0.40625 -0.203125 -0.9375 -0.203125q-0.71875 0 -1.234375 0.296875q-0.515625 0.28125 -0.78125 0.828125q-0.25 0.546875 -0.25 1.359375q0 0.8125 0.34375 1.421875q0.34375 0.609375 1.0 0.953125q0.671875 0.328125 1.578125 0.328125q0.640625 0 1.125 -0.1875q0.5 -0.1875 1.078125 -0.640625l1.40625 1.984375q-0.578125 0.5 -1.234375 0.828125q-0.65625 0.3125 -1.34375 0.46875q-0.671875 0.15625 -1.34375 0.15625zm6.229431 -0.1875l0 -13.8125l2.984375 0l0 13.8125l-2.984375 0zm10.187988 0.1875q-1.640625 0 -2.859375 -0.65625q-1.203125 -0.671875 -1.875 -1.8125q-0.671875 -1.15625 -0.671875 -2.625q0 -1.140625 0.359375 -2.09375q0.375 -0.953125 1.046875 -1.640625q0.671875 -0.703125 1.59375 -1.078125q0.9375 -0.390625 2.03125 -0.390625q1.046875 0 1.90625 0.375q0.875 0.375 1.5 1.046875q0.640625 0.671875 0.96875 1.59375q0.34375 0.90625 0.3125 1.984375l-0.03125 0.796875l-7.890625 0l-0.421875 -1.671875l5.890625 0l-0.3125 0.34375l0 -0.359375q-0.03125 -0.46875 -0.296875 -0.828125q-0.25 -0.375 -0.65625 -0.578125q-0.40625 -0.203125 -0.9375 -0.203125q-0.71875 0 -1.234375 0.296875q-0.515625 0.28125 -0.78125 0.828125q-0.25 0.546875 -0.25 1.359375q0 0.8125 0.34375 1.421875q0.34375 0.609375 1.0 0.953125q0.671875 0.328125 1.578125 0.328125q0.640625 0 1.125 -0.1875q0.5 -0.1875 1.078125 -0.640625l1.40625 1.984375q-0.578125 0.5 -1.234375 0.828125q-0.65625 0.3125 -1.34375 0.46875q-0.671875 0.15625 -1.34375 0.15625zm6.198181 -0.1875l0 -9.90625l2.828125 0l0.09375 1.796875l-0.390625 0.015625q0.21875 -0.484375 0.5625 -0.859375q0.34375 -0.375 0.78125 -0.625q0.453125 -0.25 0.921875 -0.375q0.46875 -0.140625 0.96875 -0.140625q0.71875 0 1.3125 0.234375q0.609375 0.21875 1.046875 0.71875q0.453125 0.484375 0.71875 1.328125l-0.46875 -0.046875l0.140625 -0.296875q0.25 -0.4375 0.625 -0.796875q0.390625 -0.375 0.84375 -0.625q0.46875 -0.25 0.96875 -0.375q0.515625 -0.140625 0.984375 -0.140625q1.171875 0 1.953125 0.46875q0.78125 0.453125 1.1875 1.375q0.40625 0.90625 0.40625 2.203125l0 6.046875l-3.015625 0l0 -5.796875q0 -0.609375 -0.171875 -1.0q-0.15625 -0.390625 -0.484375 -0.578125q-0.328125 -0.203125 -0.8125 -0.203125q-0.390625 0 -0.71875 0.140625q-0.328125 0.125 -0.5625 0.359375q-0.234375 0.21875 -0.359375 0.515625q-0.125 0.296875 -0.125 0.671875l0 5.890625l-3.015625 0l0 -5.828125q0 -0.546875 -0.171875 -0.9375q-0.15625 -0.390625 -0.5 -0.59375q-0.328125 -0.21875 -0.78125 -0.21875q-0.390625 0 -0.71875 0.140625q-0.328125 0.125 -0.5625 0.359375q-0.21875 0.21875 -0.359375 0.515625q-0.125 0.296875 -0.125 0.65625l0 5.90625l-3.0 0zm22.681702 0.1875q-1.640625 0 -2.859375 -0.65625q-1.203125 -0.671875 -1.875 -1.8125q-0.671875 -1.15625 -0.671875 -2.625q0 -1.140625 0.359375 -2.09375q0.375 -0.953125 1.046875 -1.640625q0.671875 -0.703125 1.59375 -1.078125q0.9375 -0.390625 2.03125 -0.390625q1.046875 0 1.90625 0.375q0.875 0.375 1.5 1.046875q0.640625 0.671875 0.96875 1.59375q0.34375 0.90625 0.3125 1.984375l-0.03125 0.796875l-7.890625 0l-0.421875 -1.671875l5.890625 0l-0.3125 0.34375l0 -0.359375q-0.03125 -0.46875 -0.296875 -0.828125q-0.25 -0.375 -0.65625 -0.578125q-0.40625 -0.203125 -0.9375 -0.203125q-0.71875 0 -1.234375 0.296875q-0.515625 0.28125 -0.78125 0.828125q-0.25 0.546875 -0.25 1.359375q0 0.8125 0.34375 1.421875q0.34375 0.609375 1.0 0.953125q0.671875 0.328125 1.578125 0.328125q0.640625 0 1.125 -0.1875q0.5 -0.1875 1.078125 -0.640625l1.40625 1.984375q-0.578125 0.5 -1.234375 0.828125q-0.65625 0.3125 -1.34375 0.46875q-0.671875 0.15625 -1.34375 0.15625zm6.213806 -0.1875l0 -9.90625l2.828125 0l0.09375 2.015625l-0.59375 0.21875q0.203125 -0.671875 0.734375 -1.21875q0.53125 -0.546875 1.28125 -0.875q0.75 -0.34375 1.5625 -0.34375q1.125 0 1.890625 0.453125q0.765625 0.453125 1.15625 1.359375q0.390625 0.90625 0.390625 2.21875l0 6.078125l-3.0 0l0 -5.84375q0 -0.59375 -0.171875 -0.984375q-0.171875 -0.390625 -0.515625 -0.578125q-0.34375 -0.203125 -0.84375 -0.1875q-0.390625 0 -0.734375 0.125q-0.328125 0.125 -0.578125 0.359375q-0.234375 0.21875 -0.375 0.53125q-0.140625 0.296875 -0.140625 0.640625l0 5.9375l-1.484375 0q-0.515625 0 -0.890625 0q-0.375 0 -0.609375 0zm12.659241 0l0 -12.40625l2.984375 0l0 12.40625l-2.984375 0zm-1.75 -7.296875l0 -2.609375l6.65625 0l0 2.609375l-6.65625 0zm12.079773 7.484375q-1.46875 0 -2.578125 -0.46875q-1.109375 -0.46875 -1.765625 -1.25l1.8125 -1.5625q0.578125 0.578125 1.296875 0.84375q0.734375 0.265625 1.390625 0.265625q0.265625 0 0.46875 -0.046875q0.203125 -0.0625 0.34375 -0.15625q0.140625 -0.109375 0.21875 -0.25q0.078125 -0.140625 0.078125 -0.328125q0 -0.375 -0.34375 -0.578125q-0.171875 -0.09375 -0.5625 -0.21875q-0.390625 -0.125 -1.0 -0.296875q-0.875 -0.21875 -1.53125 -0.53125q-0.640625 -0.3125 -1.046875 -0.71875q-0.375 -0.390625 -0.578125 -0.859375q-0.203125 -0.484375 -0.203125 -1.078125q0 -0.703125 0.328125 -1.25q0.328125 -0.5625 0.875 -0.96875q0.546875 -0.421875 1.265625 -0.625q0.71875 -0.21875 1.484375 -0.21875q0.828125 0 1.5625 0.1875q0.75 0.1875 1.390625 0.53125q0.65625 0.328125 1.15625 0.796875l-1.578125 1.75q-0.328125 -0.3125 -0.75 -0.5625q-0.421875 -0.265625 -0.875 -0.40625q-0.4375 -0.15625 -0.8125 -0.15625q-0.28125 0 -0.5 0.046875q-0.203125 0.046875 -0.359375 0.15625q-0.140625 0.09375 -0.21875 0.234375q-0.078125 0.140625 -0.078125 0.328125q0 0.1875 0.09375 0.359375q0.109375 0.171875 0.296875 0.28125q0.1875 0.109375 0.59375 0.25q0.421875 0.140625 1.125 0.34375q0.875 0.234375 1.5 0.546875q0.640625 0.296875 1.015625 0.703125q0.296875 0.3125 0.4375 0.734375q0.15625 0.421875 0.15625 0.90625q0 0.953125 -0.53125 1.6875q-0.53125 0.734375 -1.46875 1.15625q-0.921875 0.421875 -2.109375 0.421875z" fill-rule="nonzero"/><path fill="#000000" d="m406.88547 119.799965l0 -14.015625l2.828125 0l0.109375 2.21875l-0.546875 -0.171875q0.125 -0.609375 0.625 -1.109375q0.5 -0.515625 1.28125 -0.8125q0.78125 -0.3125 1.625 -0.3125q1.28125 0 2.265625 0.671875q0.984375 0.65625 1.546875 1.8125q0.578125 1.140625 0.578125 2.640625q0 1.5 -0.578125 2.65625q-0.5625 1.15625 -1.5625 1.828125q-1.0 0.65625 -2.28125 0.65625q-0.84375 0 -1.609375 -0.3125q-0.765625 -0.328125 -1.28125 -0.859375q-0.515625 -0.546875 -0.6875 -1.1875l0.6875 -0.25l0 6.546875l-3.0 0zm5.171875 -6.453125q0.65625 0 1.15625 -0.328125q0.515625 -0.328125 0.796875 -0.90625q0.28125 -0.578125 0.28125 -1.390625q0 -0.78125 -0.28125 -1.359375q-0.28125 -0.59375 -0.78125 -0.921875q-0.484375 -0.328125 -1.171875 -0.328125q-0.703125 0 -1.203125 0.328125q-0.5 0.3125 -0.78125 0.90625q-0.28125 0.59375 -0.28125 1.375q0 0.8125 0.28125 1.390625q0.28125 0.578125 0.78125 0.90625q0.5 0.328125 1.203125 0.328125zm7.122589 2.34375l0 -9.90625l2.828125 0l0.140625 3.234375l-0.5625 -0.625q0.21875 -0.796875 0.734375 -1.421875q0.515625 -0.640625 1.203125 -1.015625q0.6875 -0.375 1.46875 -0.375q0.34375 0 0.625 0.0625q0.296875 0.046875 0.53125 0.125l-0.8125 3.296875q-0.203125 -0.125 -0.5625 -0.203125q-0.34375 -0.09375 -0.703125 -0.09375q-0.421875 0 -0.78125 0.140625q-0.34375 0.140625 -0.59375 0.40625q-0.234375 0.25 -0.375 0.609375q-0.140625 0.359375 -0.140625 0.796875l0 4.96875l-3.0 0zm12.796692 0.1875q-1.640625 0 -2.859375 -0.65625q-1.203125 -0.671875 -1.875 -1.8125q-0.671875 -1.15625 -0.671875 -2.625q0 -1.140625 0.359375 -2.09375q0.375 -0.953125 1.046875 -1.640625q0.671875 -0.703125 1.59375 -1.078125q0.9375 -0.390625 2.03125 -0.390625q1.046875 0 1.90625 0.375q0.875 0.375 1.5 1.046875q0.640625 0.671875 0.96875 1.59375q0.34375 0.90625 0.3125 1.984375l-0.03125 0.796875l-7.890625 0l-0.421875 -1.671875l5.890625 0l-0.3125 0.34375l0 -0.359375q-0.03125 -0.46875 -0.296875 -0.828125q-0.25 -0.375 -0.65625 -0.578125q-0.40625 -0.203125 -0.9375 -0.203125q-0.71875 0 -1.234375 0.296875q-0.515625 0.28125 -0.78125 0.828125q-0.25 0.546875 -0.25 1.359375q0 0.8125 0.34375 1.421875q0.34375 0.609375 1.0 0.953125q0.671875 0.328125 1.578125 0.328125q0.640625 0 1.125 -0.1875q0.5 -0.1875 1.078125 -0.640625l1.40625 1.984375q-0.578125 0.5 -1.234375 0.828125q-0.65625 0.3125 -1.34375 0.46875q-0.671875 0.15625 -1.34375 0.15625zm5.838806 -4.1875l0 -2.734375l6.453125 0l0 2.734375l-6.453125 0zm8.733002 8.109375l0 -14.015625l2.828125 0l0.109375 2.21875l-0.546875 -0.171875q0.125 -0.609375 0.625 -1.109375q0.5 -0.515625 1.28125 -0.8125q0.78125 -0.3125 1.625 -0.3125q1.28125 0 2.265625 0.671875q0.984375 0.65625 1.546875 1.8125q0.578125 1.140625 0.578125 2.640625q0 1.5 -0.578125 2.65625q-0.5625 1.15625 -1.5625 1.828125q-1.0 0.65625 -2.28125 0.65625q-0.84375 0 -1.609375 -0.3125q-0.765625 -0.328125 -1.28125 -0.859375q-0.515625 -0.546875 -0.6875 -1.1875l0.6875 -0.25l0 6.546875l-3.0 0zm5.171875 -6.453125q0.65625 0 1.15625 -0.328125q0.515625 -0.328125 0.796875 -0.90625q0.28125 -0.578125 0.28125 -1.390625q0 -0.78125 -0.28125 -1.359375q-0.28125 -0.59375 -0.78125 -0.921875q-0.484375 -0.328125 -1.171875 -0.328125q-0.703125 0 -1.203125 0.328125q-0.5 0.3125 -0.78125 0.90625q-0.28125 0.59375 -0.28125 1.375q0 0.8125 0.28125 1.390625q0.28125 0.578125 0.78125 0.90625q0.5 0.328125 1.203125 0.328125zm11.841339 2.53125q-1.640625 0 -2.859375 -0.65625q-1.203125 -0.671875 -1.875 -1.8125q-0.671875 -1.15625 -0.671875 -2.625q0 -1.140625 0.359375 -2.09375q0.375 -0.953125 1.046875 -1.640625q0.671875 -0.703125 1.59375 -1.078125q0.9375 -0.390625 2.03125 -0.390625q1.046875 0 1.90625 0.375q0.875 0.375 1.5 1.046875q0.640625 0.671875 0.96875 1.59375q0.34375 0.90625 0.3125 1.984375l-0.03125 0.796875l-7.890625 0l-0.421875 -1.671875l5.890625 0l-0.3125 0.34375l0 -0.359375q-0.03125 -0.46875 -0.296875 -0.828125q-0.25 -0.375 -0.65625 -0.578125q-0.40625 -0.203125 -0.9375 -0.203125q-0.71875 0 -1.234375 0.296875q-0.515625 0.28125 -0.78125 0.828125q-0.25 0.546875 -0.25 1.359375q0 0.8125 0.34375 1.421875q0.34375 0.609375 1.0 0.953125q0.671875 0.328125 1.578125 0.328125q0.640625 0 1.125 -0.1875q0.5 -0.1875 1.078125 -0.640625l1.40625 1.984375q-0.578125 0.5 -1.234375 0.828125q-0.65625 0.3125 -1.34375 0.46875q-0.671875 0.15625 -1.34375 0.15625zm6.2138367 -0.1875l0 -9.90625l2.828125 0l0.09375 2.015625l-0.59375 0.21875q0.203125 -0.671875 0.734375 -1.21875q0.53125 -0.546875 1.28125 -0.875q0.75 -0.34375 1.5625 -0.34375q1.125 0 1.890625 0.453125q0.765625 0.453125 1.15625 1.359375q0.390625 0.90625 0.390625 2.21875l0 6.078125l-3.0 0l0 -5.84375q0 -0.59375 -0.171875 -0.984375q-0.171875 -0.390625 -0.515625 -0.578125q-0.34375 -0.203125 -0.84375 -0.1875q-0.390625 0 -0.734375 0.125q-0.328125 0.125 -0.578125 0.359375q-0.234375 0.21875 -0.375 0.53125q-0.140625 0.296875 -0.140625 0.640625l0 5.9375l-1.484375 0q-0.515625 0 -0.890625 0q-0.375 0 -0.609375 0zm15.59671 0.203125q-1.296875 0 -2.296875 -0.65625q-0.984375 -0.671875 -1.5625 -1.828125q-0.578125 -1.171875 -0.578125 -2.65625q0 -1.5 0.578125 -2.65625q0.578125 -1.171875 1.578125 -1.84375q1.015625 -0.671875 2.3125 -0.671875q0.671875 0 1.28125 0.203125q0.625 0.203125 1.125 0.5625q0.5 0.34375 0.8125 0.8125q0.328125 0.453125 0.390625 0.9375l-0.71875 0.171875l0 -6.390625l3.0 0l0 13.8125l-2.765625 0l-0.171875 -2.25l0.59375 0.078125q-0.0625 0.46875 -0.375 0.90625q-0.296875 0.421875 -0.78125 0.75q-0.484375 0.328125 -1.109375 0.515625q-0.625 0.203125 -1.3125 0.203125zm0.765625 -2.484375q0.6875 0 1.1875 -0.328125q0.5 -0.34375 0.765625 -0.9375q0.28125 -0.59375 0.28125 -1.390625q0 -0.828125 -0.28125 -1.421875q-0.265625 -0.59375 -0.765625 -0.921875q-0.5 -0.34375 -1.1875 -0.34375q-0.6875 0 -1.1875 0.34375q-0.5 0.328125 -0.78125 0.921875q-0.28125 0.59375 -0.28125 1.421875q0 0.796875 0.28125 1.390625q0.28125 0.59375 0.78125 0.9375q0.5 0.328125 1.1875 0.328125zm12.404327 2.46875q-1.640625 0 -2.859375 -0.65625q-1.203125 -0.671875 -1.875 -1.8125q-0.671875 -1.15625 -0.671875 -2.625q0 -1.140625 0.359375 -2.09375q0.375 -0.953125 1.046875 -1.640625q0.671875 -0.703125 1.59375 -1.078125q0.9375 -0.390625 2.03125 -0.390625q1.046875 0 1.90625 0.375q0.875 0.375 1.5 1.046875q0.640625 0.671875 0.96875 1.59375q0.34375 0.90625 0.3125 1.984375l-0.03125 0.796875l-7.890625 0l-0.421875 -1.671875l5.890625 0l-0.3125 0.34375l0 -0.359375q-0.03125 -0.46875 -0.296875 -0.828125q-0.25 -0.375 -0.65625 -0.578125q-0.40625 -0.203125 -0.9375 -0.203125q-0.71875 0 -1.234375 0.296875q-0.515625 0.28125 -0.78125 0.828125q-0.25 0.546875 -0.25 1.359375q0 0.8125 0.34375 1.421875q0.34375 0.609375 1.0 0.953125q0.671875 0.328125 1.578125 0.328125q0.640625 0 1.125 -0.1875q0.5 -0.1875 1.078125 -0.640625l1.40625 1.984375q-0.578125 0.5 -1.234375 0.828125q-0.65625 0.3125 -1.34375 0.46875q-0.671875 0.15625 -1.34375 0.15625zm9.963806 0.015625q-1.296875 0 -2.296875 -0.65625q-0.984375 -0.671875 -1.5625 -1.828125q-0.578125 -1.171875 -0.578125 -2.65625q0 -1.5 0.578125 -2.65625q0.578125 -1.171875 1.578125 -1.84375q1.015625 -0.671875 2.3125 -0.671875q0.671875 0 1.28125 0.203125q0.625 0.203125 1.125 0.5625q0.5 0.34375 0.8125 0.8125q0.32815552 0.453125 0.39065552 0.9375l-0.7187805 0.171875l0 -6.390625l3.0000305 0l0 13.8125l-2.7656555 0l-0.171875 -2.25l0.5937805 0.078125q-0.0625 0.46875 -0.37503052 0.90625q-0.296875 0.421875 -0.78125 0.75q-0.484375 0.328125 -1.109375 0.515625q-0.625 0.203125 -1.3125 0.203125zm0.765625 -2.484375q0.6875 0 1.1875 -0.328125q0.5 -0.34375 0.765625 -0.9375q0.28125 -0.59375 0.28125 -1.390625q0 -0.828125 -0.28125 -1.421875q-0.265625 -0.59375 -0.765625 -0.921875q-0.5 -0.34375 -1.1875 -0.34375q-0.6875 0 -1.1875 0.34375q-0.5 0.328125 -0.78125 0.921875q-0.28125 0.59375 -0.28125 1.421875q0 0.796875 0.28125 1.390625q0.28125 0.59375 0.78125 0.9375q0.5 0.328125 1.1875 0.328125z" fill-rule="nonzero"/><path fill="#000000" d="m423.7054 138.09059l-3.265625 -9.90625l3.15625 0l1.828125 6.4375l-0.390625 -0.078125l2.046875 -5.0l1.765625 0l2.15625 5.015625l-0.421875 0.046875l1.828125 -6.421875l3.140625 0l-3.375 9.90625l-2.203125 0l-2.140625 -5.3125l0.21875 0.03125l-2.140625 5.28125l-2.203125 0zm13.574951 0l0 -9.90625l2.984375 0l0 9.90625l-2.984375 0zm1.484375 -11.859383q-0.84375 0 -1.328125 -0.40625q-0.46875 -0.40625 -0.46875 -1.140625q0 -0.671875 0.484375 -1.09375q0.5 -0.4375 1.3125 -0.4375q0.84375 0 1.296875 0.40625q0.46875 0.390625 0.46875 1.125q0 0.6875 -0.46875 1.125q-0.46875 0.421875 -1.296875 0.421875zm5.1075745 11.859383l0 -12.406258l2.984375 0l0 12.406258l-2.984375 0zm-1.75 -7.296875l0 -2.609375l6.65625 0l0 2.609375l-6.65625 0zm8.362701 7.296875l0 -13.812508l2.921875 0l0 5.9218826l-0.59375 0.21875q0.203125 -0.671875 0.734375 -1.21875q0.53125 -0.546875 1.28125 -0.875q0.75 -0.34375763 1.5625 -0.34375763q1.125 0 1.890625 0.45313263q0.765625 0.453125 1.15625 1.359375q0.390625 0.90625 0.390625 2.21875l0 6.078125l-3.0 0l0 -5.84375q0 -0.59375 -0.171875 -0.984375q-0.171875 -0.390625 -0.515625 -0.578125q-0.34375 -0.203125 -0.84375 -0.1875q-0.390625 0 -0.734375 0.125q-0.328125 0.125 -0.578125 0.359375q-0.234375 0.21875 -0.375 0.53125q-0.140625 0.296875 -0.140625 0.640625l0 5.9375l-1.484375 0q-0.515625 0 -0.890625 0q-0.375 0 -0.609375 0zm17.863586 0l0 -2.671875l2.203125 0l0 -7.7187576l-2.203125 0l0 -2.671875l7.59375 0l0 2.671875l-2.21875 0l0 7.7187576l2.21875 0l0 2.671875l-7.59375 0zm10.619843 0l0 -13.062508l5.46875 0q1.4375 0 2.625 0.484375q1.203125 0.46875 2.0625 1.34375q0.875 0.875 1.328125 2.0781326q0.46875 1.1875 0.46875 2.625q0 1.4375 -0.46875 2.640625q-0.453125 1.203125 -1.328125 2.078125q-0.859375 0.859375 -2.0625 1.34375q-1.1875 0.46875 -2.625 0.46875l-5.46875 0zm3.171875 -2.171875l-0.421875 -0.625l2.625 0q0.78125 0 1.390625 -0.265625q0.625 -0.28125 1.0625 -0.765625q0.4375 -0.484375 0.671875 -1.171875q0.25 -0.6875 0.25 -1.53125q0 -0.84375 -0.25 -1.53125q-0.234375 -0.6875 -0.671875 -1.171875q-0.4375 -0.484375 -1.0625 -0.75q-0.609375 -0.28125763 -1.390625 -0.28125763l-2.6875 0l0.484375 -0.59375l0 8.687508zm14.262024 2.359375q-1.46875 0 -2.578125 -0.46875q-1.109375 -0.46875 -1.765625 -1.25l1.8125 -1.5625q0.578125 0.578125 1.296875 0.84375q0.734375 0.265625 1.390625 0.265625q0.265625 0 0.46875 -0.046875q0.203125 -0.0625 0.34375 -0.15625q0.140625 -0.109375 0.21875 -0.25q0.078125 -0.140625 0.078125 -0.328125q0 -0.375 -0.34375 -0.578125q-0.171875 -0.09375 -0.5625 -0.21875q-0.390625 -0.125 -1.0 -0.296875q-0.875 -0.21875 -1.53125 -0.53125q-0.640625 -0.3125 -1.046875 -0.71875q-0.375 -0.390625 -0.578125 -0.859375q-0.203125 -0.484375 -0.203125 -1.078125q0 -0.703125 0.328125 -1.25q0.328125 -0.5625 0.875 -0.96875q0.546875 -0.421875 1.265625 -0.625q0.71875 -0.21875763 1.484375 -0.21875763q0.828125 0 1.5625 0.18750763q0.75 0.1875 1.390625 0.53125q0.65625 0.328125 1.15625 0.796875l-1.578125 1.75q-0.328125 -0.3125 -0.75 -0.5625q-0.421875 -0.265625 -0.875 -0.40625q-0.4375 -0.15625 -0.8125 -0.15625q-0.28125 0 -0.5 0.046875q-0.203125 0.046875 -0.359375 0.15625q-0.140625 0.09375 -0.21875 0.234375q-0.078125 0.140625 -0.078125 0.328125q0 0.1875 0.09375 0.359375q0.109375 0.171875 0.296875 0.28125q0.1875 0.109375 0.59375 0.25q0.421875 0.140625 1.125 0.34375q0.875 0.234375 1.5 0.546875q0.640625 0.296875 1.015625 0.703125q0.296875 0.3125 0.4375 0.734375q0.15625 0.421875 0.15625 0.90625q0 0.953125 -0.53125 1.6875q-0.53125 0.734375 -1.46875 1.15625q-0.921875 0.421875 -2.109375 0.421875z" fill-rule="nonzero"/><path fill="#000000" fill-opacity="0.0" d="m143.33989 265.31235l202.67717 0" fill-rule="evenodd"/><path stroke="#000000" stroke-width="8.0" stroke-linejoin="round" stroke-linecap="butt" d="m143.33989 265.31235l175.26048 0" fill-rule="evenodd"/><path fill="#000000" stroke="#000000" stroke-width="8.0" stroke-linecap="butt" d="m318.60037 265.31235l-8.996674 8.996643l24.71814 -8.996643l-24.71814 -8.996674z" fill-rule="evenodd"/></g></svg>